<mxfile host="app.diagrams.net" agent="Mozilla/5.0 (Windows NT 10.0; Win64; x64) AppleWebKit/537.36 (KHTML, like Gecko) Chrome/138.0.0.0 Safari/537.36 Edg/138.0.0.0" version="28.2.3">
  <diagram name="第 1 页" id="IuIpj2X9DTV7a9tfboCk">
    <mxGraphModel dx="3663" dy="1110" grid="1" gridSize="5" guides="1" tooltips="1" connect="1" arrows="1" fold="1" page="1" pageScale="1" pageWidth="2009" pageHeight="827" math="0" shadow="0">
      <root>
        <mxCell id="0" />
        <mxCell id="1" parent="0" />
        <mxCell id="SBJIOkQ2_eh-6NDm1D8v-18" value="" style="rounded=1;whiteSpace=wrap;html=1;fillColor=#B0DCAF;strokeColor=none;arcSize=3;" parent="1" vertex="1">
          <mxGeometry x="470" y="429" width="505" height="489" as="geometry" />
        </mxCell>
        <mxCell id="SBJIOkQ2_eh-6NDm1D8v-41" value="" style="rounded=1;whiteSpace=wrap;html=1;fillColor=#D2B3E7;strokeColor=none;arcSize=5;" parent="1" vertex="1">
          <mxGeometry x="-40" y="428" width="500" height="400" as="geometry" />
        </mxCell>
        <mxCell id="SBJIOkQ2_eh-6NDm1D8v-2" value="" style="endArrow=none;dashed=1;html=1;rounded=0;strokeWidth=4;" parent="1" edge="1">
          <mxGeometry width="50" height="50" relative="1" as="geometry">
            <mxPoint x="-40" y="335" as="sourcePoint" />
            <mxPoint x="1245" y="335" as="targetPoint" />
          </mxGeometry>
        </mxCell>
        <mxCell id="SBJIOkQ2_eh-6NDm1D8v-3" value="&lt;b style=&quot;&quot;&gt;&lt;font style=&quot;font-size: 22px;&quot;&gt;WE PRESENT &amp;lt;PROJECT_NAME&amp;gt;&lt;/font&gt;&lt;/b&gt;" style="rounded=0;whiteSpace=wrap;html=1;" parent="1" vertex="1">
          <mxGeometry x="300" y="355" width="680" height="50" as="geometry" />
        </mxCell>
        <mxCell id="SBJIOkQ2_eh-6NDm1D8v-4" value="&lt;font style=&quot;font-size: 20px;&quot;&gt;&lt;b&gt;Advantages&lt;/b&gt;&lt;/font&gt;&lt;div&gt;&lt;span style=&quot;font-size: 20px;&quot;&gt;&lt;b&gt;&lt;br&gt;&lt;/b&gt;&lt;/span&gt;&lt;div style=&quot;text-align: right;&quot;&gt;&lt;br&gt;&lt;/div&gt;&lt;div style=&quot;text-align: right;&quot;&gt;&lt;font style=&quot;font-size: 17px;&quot;&gt;&lt;br&gt;&lt;/font&gt;&lt;/div&gt;&lt;/div&gt;" style="rounded=0;whiteSpace=wrap;html=1;verticalAlign=top;spacingTop=8;" parent="1" vertex="1">
          <mxGeometry x="1030" y="394" width="225" height="53" as="geometry" />
        </mxCell>
        <mxCell id="SBJIOkQ2_eh-6NDm1D8v-19" value="&lt;font style=&quot;font-size: 20px;&quot;&gt;&lt;b&gt;VLM&lt;/b&gt;&lt;/font&gt;" style="rounded=1;whiteSpace=wrap;html=1;fillColor=#d5e8d4;strokeColor=#82b366;strokeWidth=2;" parent="1" vertex="1">
          <mxGeometry x="510" y="523" width="86" height="190" as="geometry" />
        </mxCell>
        <mxCell id="SBJIOkQ2_eh-6NDm1D8v-172" style="edgeStyle=orthogonalEdgeStyle;rounded=0;orthogonalLoop=1;jettySize=auto;html=1;exitX=0.25;exitY=1;exitDx=0;exitDy=0;entryX=0;entryY=0.5;entryDx=0;entryDy=0;fillColor=#d5e8d4;strokeColor=#82b366;strokeWidth=2;" parent="1" source="SBJIOkQ2_eh-6NDm1D8v-20" target="SBJIOkQ2_eh-6NDm1D8v-168" edge="1">
          <mxGeometry relative="1" as="geometry" />
        </mxCell>
        <mxCell id="SBJIOkQ2_eh-6NDm1D8v-173" value="Update&lt;div&gt;Score&lt;/div&gt;" style="edgeLabel;html=1;align=center;verticalAlign=middle;resizable=0;points=[];labelBackgroundColor=none;fontSize=11;fontStyle=1;fontColor=light-dark(#668B63,#BEC8D4);" parent="SBJIOkQ2_eh-6NDm1D8v-172" vertex="1" connectable="0">
          <mxGeometry x="-0.1784" relative="1" as="geometry">
            <mxPoint x="-23" y="-2" as="offset" />
          </mxGeometry>
        </mxCell>
        <mxCell id="SBJIOkQ2_eh-6NDm1D8v-20" value="&lt;font style=&quot;font-size: 20px;&quot;&gt;&lt;b&gt;Judge&lt;/b&gt;&lt;/font&gt;&lt;div&gt;&lt;font style=&quot;font-size: 20px;&quot;&gt;&lt;b&gt;Algorithm&lt;/b&gt;&lt;/font&gt;&lt;/div&gt;" style="rounded=1;whiteSpace=wrap;html=1;fillColor=#d5e8d4;strokeColor=#82b366;strokeWidth=2;" parent="1" vertex="1">
          <mxGeometry x="800" y="653" width="125" height="96.24" as="geometry" />
        </mxCell>
        <mxCell id="SBJIOkQ2_eh-6NDm1D8v-21" value="" style="rounded=1;whiteSpace=wrap;html=1;fillColor=#d5e8d4;strokeColor=#82b366;align=center;spacingLeft=0;strokeWidth=2;" parent="1" vertex="1">
          <mxGeometry x="655" y="501.12" width="295" height="80" as="geometry" />
        </mxCell>
        <mxCell id="SBJIOkQ2_eh-6NDm1D8v-22" value="&lt;span style=&quot;font-size: 20px;&quot;&gt;&lt;b&gt;Current Benchmarking Paradigms&lt;/b&gt;&lt;/span&gt;" style="rounded=0;whiteSpace=wrap;html=1;fillColor=none;dashed=1;dashPattern=8 8;strokeColor=none;" parent="1" vertex="1">
          <mxGeometry x="319.5" y="20" width="385" height="40" as="geometry" />
        </mxCell>
        <mxCell id="SBJIOkQ2_eh-6NDm1D8v-26" value="" style="group;strokeWidth=2;" parent="1" vertex="1" connectable="0">
          <mxGeometry x="2" y="473" width="84" height="83.5" as="geometry" />
        </mxCell>
        <mxCell id="SBJIOkQ2_eh-6NDm1D8v-24" value="&lt;font style=&quot;font-size: 16px;&quot;&gt;Lab 1&lt;/font&gt;" style="rounded=1;whiteSpace=wrap;html=1;fillColor=#e1d5e7;strokeColor=#9673a6;verticalAlign=bottom;fontSize=19;spacingBottom=3;strokeWidth=2;" parent="SBJIOkQ2_eh-6NDm1D8v-26" vertex="1">
          <mxGeometry width="84" height="83.5" as="geometry" />
        </mxCell>
        <mxCell id="SBJIOkQ2_eh-6NDm1D8v-25" value="" style="shape=mxgraph.signs.science.microscope;html=1;pointerEvents=1;fillColor=#000000;strokeColor=none;verticalLabelPosition=bottom;verticalAlign=top;align=center;sketch=0;" parent="SBJIOkQ2_eh-6NDm1D8v-26" vertex="1">
          <mxGeometry x="25.207952035342352" y="7.590909090909092" width="33.57526033449038" height="45.54545454545456" as="geometry" />
        </mxCell>
        <mxCell id="SBJIOkQ2_eh-6NDm1D8v-89" value="" style="group" parent="1" vertex="1" connectable="0">
          <mxGeometry x="310" y="473" width="139" height="91.75" as="geometry" />
        </mxCell>
        <mxCell id="SBJIOkQ2_eh-6NDm1D8v-93" value="" style="group" parent="SBJIOkQ2_eh-6NDm1D8v-89" vertex="1" connectable="0">
          <mxGeometry width="139" height="91.75" as="geometry" />
        </mxCell>
        <mxCell id="SBJIOkQ2_eh-6NDm1D8v-84" value="" style="verticalLabelPosition=bottom;verticalAlign=top;html=1;shape=mxgraph.basic.layered_rect;dx=20.35;outlineConnect=0;whiteSpace=wrap;fillColor=#e1d5e7;strokeColor=#9673a6;" parent="SBJIOkQ2_eh-6NDm1D8v-93" vertex="1">
          <mxGeometry width="130" height="85" as="geometry" />
        </mxCell>
        <mxCell id="SBJIOkQ2_eh-6NDm1D8v-68" value="" style="sketch=0;outlineConnect=0;fontColor=#232F3E;gradientColor=none;fillColor=#232F3D;strokeColor=none;dashed=0;verticalLabelPosition=bottom;verticalAlign=top;align=center;html=1;fontSize=12;fontStyle=0;aspect=fixed;pointerEvents=1;shape=mxgraph.aws4.multimedia;" parent="SBJIOkQ2_eh-6NDm1D8v-93" vertex="1">
          <mxGeometry x="5" y="3.25" width="25.11" height="23.5" as="geometry" />
        </mxCell>
        <mxCell id="SBJIOkQ2_eh-6NDm1D8v-70" value="" style="sketch=0;outlineConnect=0;fontColor=#232F3E;gradientColor=none;fillColor=#232F3D;strokeColor=none;dashed=0;verticalLabelPosition=bottom;verticalAlign=top;align=center;html=1;fontSize=12;fontStyle=0;aspect=fixed;pointerEvents=1;shape=mxgraph.aws4.documents3;" parent="SBJIOkQ2_eh-6NDm1D8v-93" vertex="1">
          <mxGeometry x="6.589999999999975" y="28.75" width="21.92" height="30" as="geometry" />
        </mxCell>
        <mxCell id="SBJIOkQ2_eh-6NDm1D8v-74" value="Observation" style="text;html=1;align=center;verticalAlign=middle;resizable=0;points=[];autosize=1;strokeColor=none;fillColor=none;" parent="SBJIOkQ2_eh-6NDm1D8v-93" vertex="1">
          <mxGeometry x="25" width="90" height="30" as="geometry" />
        </mxCell>
        <mxCell id="SBJIOkQ2_eh-6NDm1D8v-75" value="Results" style="text;html=1;align=center;verticalAlign=middle;resizable=0;points=[];autosize=1;strokeColor=none;fillColor=none;" parent="SBJIOkQ2_eh-6NDm1D8v-93" vertex="1">
          <mxGeometry x="40" y="29.75" width="60" height="30" as="geometry" />
        </mxCell>
        <mxCell id="SBJIOkQ2_eh-6NDm1D8v-85" value="&lt;font&gt;test #1&lt;/font&gt;" style="text;html=1;align=center;verticalAlign=middle;resizable=0;points=[];autosize=1;strokeColor=none;fillColor=none;fontSize=9;" parent="SBJIOkQ2_eh-6NDm1D8v-93" vertex="1">
          <mxGeometry x="67" y="46.25" width="50" height="25" as="geometry" />
        </mxCell>
        <mxCell id="SBJIOkQ2_eh-6NDm1D8v-87" value="&lt;font&gt;test #3&lt;/font&gt;" style="text;html=1;align=center;verticalAlign=middle;resizable=0;points=[];autosize=1;strokeColor=none;fillColor=none;fontSize=9;" parent="SBJIOkQ2_eh-6NDm1D8v-93" vertex="1">
          <mxGeometry x="87" y="67.75" width="50" height="25" as="geometry" />
        </mxCell>
        <mxCell id="SBJIOkQ2_eh-6NDm1D8v-86" value="&lt;font&gt;test #2&lt;/font&gt;" style="text;html=1;align=center;verticalAlign=middle;resizable=0;points=[];autosize=1;strokeColor=none;fillColor=none;fontSize=9;" parent="SBJIOkQ2_eh-6NDm1D8v-93" vertex="1">
          <mxGeometry x="77" y="57.75" width="50" height="25" as="geometry" />
        </mxCell>
        <mxCell id="SBJIOkQ2_eh-6NDm1D8v-91" style="edgeStyle=orthogonalEdgeStyle;rounded=0;orthogonalLoop=1;jettySize=auto;html=1;strokeWidth=4;fillColor=#e1d5e7;strokeColor=#9673a6;" parent="1" source="SBJIOkQ2_eh-6NDm1D8v-24" target="SBJIOkQ2_eh-6NDm1D8v-84" edge="1">
          <mxGeometry relative="1" as="geometry" />
        </mxCell>
        <mxCell id="SBJIOkQ2_eh-6NDm1D8v-94" value="" style="group" parent="1" vertex="1" connectable="0">
          <mxGeometry y="713" width="114" height="83.5" as="geometry" />
        </mxCell>
        <mxCell id="SBJIOkQ2_eh-6NDm1D8v-95" value="&lt;font style=&quot;font-size: 16px;&quot;&gt;Lab 3&lt;/font&gt;" style="rounded=1;whiteSpace=wrap;html=1;fillColor=#e1d5e7;strokeColor=#9673a6;verticalAlign=bottom;fontSize=19;spacingBottom=3;strokeWidth=2;" parent="SBJIOkQ2_eh-6NDm1D8v-94" vertex="1">
          <mxGeometry x="2" y="-46.75" width="84" height="83.5" as="geometry" />
        </mxCell>
        <mxCell id="SBJIOkQ2_eh-6NDm1D8v-96" value="" style="shape=mxgraph.signs.science.microscope;html=1;pointerEvents=1;fillColor=#000000;strokeColor=none;verticalLabelPosition=bottom;verticalAlign=top;align=center;sketch=0;" parent="SBJIOkQ2_eh-6NDm1D8v-94" vertex="1">
          <mxGeometry x="27.207952035342352" y="-39.15909090909091" width="33.57526033449038" height="45.54545454545456" as="geometry" />
        </mxCell>
        <mxCell id="SBJIOkQ2_eh-6NDm1D8v-178" value="Different environments&lt;div&gt;Real / Sim&lt;/div&gt;" style="text;html=1;align=center;verticalAlign=middle;resizable=0;points=[];autosize=1;strokeColor=none;fillColor=none;fontStyle=1" parent="SBJIOkQ2_eh-6NDm1D8v-94" vertex="1">
          <mxGeometry x="-26" y="38.5" width="140" height="45" as="geometry" />
        </mxCell>
        <mxCell id="SBJIOkQ2_eh-6NDm1D8v-97" value="" style="group" parent="1" vertex="1" connectable="0">
          <mxGeometry x="310" y="666.25" width="139" height="92.75" as="geometry" />
        </mxCell>
        <mxCell id="SBJIOkQ2_eh-6NDm1D8v-98" value="" style="group" parent="SBJIOkQ2_eh-6NDm1D8v-97" vertex="1" connectable="0">
          <mxGeometry width="139" height="92.75" as="geometry" />
        </mxCell>
        <mxCell id="SBJIOkQ2_eh-6NDm1D8v-99" value="" style="verticalLabelPosition=bottom;verticalAlign=top;html=1;shape=mxgraph.basic.layered_rect;dx=20.35;outlineConnect=0;whiteSpace=wrap;fillColor=#e1d5e7;strokeColor=#9673a6;" parent="SBJIOkQ2_eh-6NDm1D8v-98" vertex="1">
          <mxGeometry width="130" height="85" as="geometry" />
        </mxCell>
        <mxCell id="SBJIOkQ2_eh-6NDm1D8v-100" value="" style="sketch=0;outlineConnect=0;fontColor=#232F3E;gradientColor=none;fillColor=#232F3D;strokeColor=none;dashed=0;verticalLabelPosition=bottom;verticalAlign=top;align=center;html=1;fontSize=12;fontStyle=0;aspect=fixed;pointerEvents=1;shape=mxgraph.aws4.multimedia;" parent="SBJIOkQ2_eh-6NDm1D8v-98" vertex="1">
          <mxGeometry x="5" y="3.25" width="25.11" height="23.5" as="geometry" />
        </mxCell>
        <mxCell id="SBJIOkQ2_eh-6NDm1D8v-101" value="" style="sketch=0;outlineConnect=0;fontColor=#232F3E;gradientColor=none;fillColor=#232F3D;strokeColor=none;dashed=0;verticalLabelPosition=bottom;verticalAlign=top;align=center;html=1;fontSize=12;fontStyle=0;aspect=fixed;pointerEvents=1;shape=mxgraph.aws4.documents3;" parent="SBJIOkQ2_eh-6NDm1D8v-98" vertex="1">
          <mxGeometry x="6.589999999999975" y="28.75" width="21.92" height="30" as="geometry" />
        </mxCell>
        <mxCell id="SBJIOkQ2_eh-6NDm1D8v-102" value="Observation" style="text;html=1;align=center;verticalAlign=middle;resizable=0;points=[];autosize=1;strokeColor=none;fillColor=none;" parent="SBJIOkQ2_eh-6NDm1D8v-98" vertex="1">
          <mxGeometry x="25" width="90" height="30" as="geometry" />
        </mxCell>
        <mxCell id="SBJIOkQ2_eh-6NDm1D8v-103" value="Results" style="text;html=1;align=center;verticalAlign=middle;resizable=0;points=[];autosize=1;strokeColor=none;fillColor=none;" parent="SBJIOkQ2_eh-6NDm1D8v-98" vertex="1">
          <mxGeometry x="40" y="29.75" width="60" height="30" as="geometry" />
        </mxCell>
        <mxCell id="SBJIOkQ2_eh-6NDm1D8v-104" value="&lt;font&gt;test #α&lt;/font&gt;" style="text;html=1;align=center;verticalAlign=middle;resizable=0;points=[];autosize=1;strokeColor=none;fillColor=none;fontSize=9;" parent="SBJIOkQ2_eh-6NDm1D8v-98" vertex="1">
          <mxGeometry x="67" y="46.25" width="50" height="25" as="geometry" />
        </mxCell>
        <mxCell id="SBJIOkQ2_eh-6NDm1D8v-105" value="&lt;font&gt;test #γ&lt;/font&gt;" style="text;html=1;align=center;verticalAlign=middle;resizable=0;points=[];autosize=1;strokeColor=none;fillColor=none;fontSize=9;" parent="SBJIOkQ2_eh-6NDm1D8v-98" vertex="1">
          <mxGeometry x="87" y="66.75" width="50" height="25" as="geometry" />
        </mxCell>
        <mxCell id="SBJIOkQ2_eh-6NDm1D8v-106" value="&lt;font&gt;test #β&lt;/font&gt;" style="text;html=1;align=center;verticalAlign=middle;resizable=0;points=[];autosize=1;strokeColor=none;fillColor=none;fontSize=9;" parent="SBJIOkQ2_eh-6NDm1D8v-98" vertex="1">
          <mxGeometry x="77" y="56.75" width="50" height="25" as="geometry" />
        </mxCell>
        <mxCell id="SBJIOkQ2_eh-6NDm1D8v-107" style="edgeStyle=orthogonalEdgeStyle;rounded=0;orthogonalLoop=1;jettySize=auto;html=1;strokeWidth=4;fillColor=#e1d5e7;strokeColor=#9673a6;" parent="1" source="SBJIOkQ2_eh-6NDm1D8v-95" target="SBJIOkQ2_eh-6NDm1D8v-99" edge="1">
          <mxGeometry relative="1" as="geometry" />
        </mxCell>
        <mxCell id="SBJIOkQ2_eh-6NDm1D8v-108" value="" style="group;strokeWidth=2;" parent="1" vertex="1" connectable="0">
          <mxGeometry x="2" y="568" width="84" height="83.5" as="geometry" />
        </mxCell>
        <mxCell id="SBJIOkQ2_eh-6NDm1D8v-109" value="&lt;font style=&quot;font-size: 16px;&quot;&gt;Lab 2&lt;/font&gt;" style="rounded=1;whiteSpace=wrap;html=1;fillColor=#e1d5e7;strokeColor=#9673a6;verticalAlign=bottom;fontSize=19;spacingBottom=3;strokeWidth=2;" parent="SBJIOkQ2_eh-6NDm1D8v-108" vertex="1">
          <mxGeometry width="84" height="83.5" as="geometry" />
        </mxCell>
        <mxCell id="SBJIOkQ2_eh-6NDm1D8v-110" value="" style="shape=mxgraph.signs.science.microscope;html=1;pointerEvents=1;fillColor=#000000;strokeColor=none;verticalLabelPosition=bottom;verticalAlign=top;align=center;sketch=0;" parent="SBJIOkQ2_eh-6NDm1D8v-108" vertex="1">
          <mxGeometry x="25.207952035342352" y="7.590909090909092" width="33.57526033449038" height="45.54545454545456" as="geometry" />
        </mxCell>
        <mxCell id="SBJIOkQ2_eh-6NDm1D8v-111" value="" style="group" parent="1" vertex="1" connectable="0">
          <mxGeometry x="310" y="568" width="139" height="92.75" as="geometry" />
        </mxCell>
        <mxCell id="SBJIOkQ2_eh-6NDm1D8v-112" value="" style="group" parent="SBJIOkQ2_eh-6NDm1D8v-111" vertex="1" connectable="0">
          <mxGeometry width="139" height="92.75" as="geometry" />
        </mxCell>
        <mxCell id="SBJIOkQ2_eh-6NDm1D8v-113" value="" style="verticalLabelPosition=bottom;verticalAlign=top;html=1;shape=mxgraph.basic.layered_rect;dx=20.35;outlineConnect=0;whiteSpace=wrap;fillColor=#e1d5e7;strokeColor=#9673a6;" parent="SBJIOkQ2_eh-6NDm1D8v-112" vertex="1">
          <mxGeometry width="130" height="85" as="geometry" />
        </mxCell>
        <mxCell id="SBJIOkQ2_eh-6NDm1D8v-114" value="" style="sketch=0;outlineConnect=0;fontColor=#232F3E;gradientColor=none;fillColor=#232F3D;strokeColor=none;dashed=0;verticalLabelPosition=bottom;verticalAlign=top;align=center;html=1;fontSize=12;fontStyle=0;aspect=fixed;pointerEvents=1;shape=mxgraph.aws4.multimedia;" parent="SBJIOkQ2_eh-6NDm1D8v-112" vertex="1">
          <mxGeometry x="5" y="3.25" width="25.11" height="23.5" as="geometry" />
        </mxCell>
        <mxCell id="SBJIOkQ2_eh-6NDm1D8v-115" value="" style="sketch=0;outlineConnect=0;fontColor=#232F3E;gradientColor=none;fillColor=#232F3D;strokeColor=none;dashed=0;verticalLabelPosition=bottom;verticalAlign=top;align=center;html=1;fontSize=12;fontStyle=0;aspect=fixed;pointerEvents=1;shape=mxgraph.aws4.documents3;" parent="SBJIOkQ2_eh-6NDm1D8v-112" vertex="1">
          <mxGeometry x="6.589999999999975" y="28.75" width="21.92" height="30" as="geometry" />
        </mxCell>
        <mxCell id="SBJIOkQ2_eh-6NDm1D8v-116" value="Observation" style="text;html=1;align=center;verticalAlign=middle;resizable=0;points=[];autosize=1;strokeColor=none;fillColor=none;" parent="SBJIOkQ2_eh-6NDm1D8v-112" vertex="1">
          <mxGeometry x="25" width="90" height="30" as="geometry" />
        </mxCell>
        <mxCell id="SBJIOkQ2_eh-6NDm1D8v-117" value="Results" style="text;html=1;align=center;verticalAlign=middle;resizable=0;points=[];autosize=1;strokeColor=none;fillColor=none;" parent="SBJIOkQ2_eh-6NDm1D8v-112" vertex="1">
          <mxGeometry x="40" y="29.75" width="60" height="30" as="geometry" />
        </mxCell>
        <mxCell id="SBJIOkQ2_eh-6NDm1D8v-118" value="&lt;font&gt;test #A&lt;/font&gt;" style="text;html=1;align=center;verticalAlign=middle;resizable=0;points=[];autosize=1;strokeColor=none;fillColor=none;fontSize=9;" parent="SBJIOkQ2_eh-6NDm1D8v-112" vertex="1">
          <mxGeometry x="67" y="46.25" width="50" height="25" as="geometry" />
        </mxCell>
        <mxCell id="SBJIOkQ2_eh-6NDm1D8v-119" value="&lt;font&gt;test #C&lt;/font&gt;" style="text;html=1;align=center;verticalAlign=middle;resizable=0;points=[];autosize=1;strokeColor=none;fillColor=none;fontSize=9;" parent="SBJIOkQ2_eh-6NDm1D8v-112" vertex="1">
          <mxGeometry x="87" y="67.75" width="50" height="25" as="geometry" />
        </mxCell>
        <mxCell id="SBJIOkQ2_eh-6NDm1D8v-120" value="&lt;font&gt;test #B&lt;/font&gt;" style="text;html=1;align=center;verticalAlign=middle;resizable=0;points=[];autosize=1;strokeColor=none;fillColor=none;fontSize=9;" parent="SBJIOkQ2_eh-6NDm1D8v-112" vertex="1">
          <mxGeometry x="77" y="57.75" width="50" height="25" as="geometry" />
        </mxCell>
        <mxCell id="SBJIOkQ2_eh-6NDm1D8v-121" style="edgeStyle=orthogonalEdgeStyle;rounded=0;orthogonalLoop=1;jettySize=auto;html=1;strokeWidth=4;fillColor=#e1d5e7;strokeColor=#9673a6;" parent="1" source="SBJIOkQ2_eh-6NDm1D8v-109" target="SBJIOkQ2_eh-6NDm1D8v-113" edge="1">
          <mxGeometry relative="1" as="geometry" />
        </mxCell>
        <mxCell id="SBJIOkQ2_eh-6NDm1D8v-125" value="" style="group" parent="1" vertex="1" connectable="0">
          <mxGeometry x="495" y="793" width="260" height="230" as="geometry" />
        </mxCell>
        <mxCell id="SBJIOkQ2_eh-6NDm1D8v-123" value="&lt;span style=&quot;font-size: 20px;&quot;&gt;&lt;b&gt;Eval Protocal&lt;/b&gt;&lt;/span&gt;&lt;div&gt;&lt;font size=&quot;1&quot;&gt;robot · platform · task · environment&lt;/font&gt;&lt;/div&gt;" style="rounded=1;whiteSpace=wrap;html=1;fillColor=#d5e8d4;strokeColor=#82b366;align=left;spacingLeft=10;strokeWidth=2;verticalAlign=top;spacingTop=20;" parent="SBJIOkQ2_eh-6NDm1D8v-125" vertex="1">
          <mxGeometry width="260" height="230.00000000000003" as="geometry" />
        </mxCell>
        <mxCell id="SBJIOkQ2_eh-6NDm1D8v-169" value="" style="sketch=0;outlineConnect=0;fontColor=#232F3E;gradientColor=none;fillColor=#232F3D;strokeColor=none;dashed=0;verticalLabelPosition=bottom;verticalAlign=top;align=center;html=1;fontSize=12;fontStyle=0;aspect=fixed;pointerEvents=1;shape=mxgraph.aws4.credentials;" parent="SBJIOkQ2_eh-6NDm1D8v-125" vertex="1">
          <mxGeometry x="210" y="27" width="32.31" height="45" as="geometry" />
        </mxCell>
        <mxCell id="SBJIOkQ2_eh-6NDm1D8v-180" value="Open-source&lt;div&gt;robots&lt;/div&gt;" style="text;html=1;align=center;verticalAlign=middle;resizable=0;points=[];autosize=1;strokeColor=none;fillColor=none;" parent="SBJIOkQ2_eh-6NDm1D8v-125" vertex="1">
          <mxGeometry x="23.75" y="114.27181818181818" width="90" height="45" as="geometry" />
        </mxCell>
        <mxCell id="SBJIOkQ2_eh-6NDm1D8v-181" value="Platform&lt;div&gt;scheme&lt;/div&gt;" style="text;html=1;align=center;verticalAlign=middle;resizable=0;points=[];autosize=1;strokeColor=none;fillColor=none;" parent="SBJIOkQ2_eh-6NDm1D8v-125" vertex="1">
          <mxGeometry x="159.25" y="114.27181818181818" width="65" height="45" as="geometry" />
        </mxCell>
        <mxCell id="SBJIOkQ2_eh-6NDm1D8v-182" value="Test setting&lt;div&gt;regularization&lt;/div&gt;" style="text;html=1;align=center;verticalAlign=middle;resizable=0;points=[];autosize=1;strokeColor=none;fillColor=none;" parent="SBJIOkQ2_eh-6NDm1D8v-125" vertex="1">
          <mxGeometry x="21.25" y="181.9572727272727" width="95" height="45" as="geometry" />
        </mxCell>
        <mxCell id="SBJIOkQ2_eh-6NDm1D8v-183" value="Camera and&amp;nbsp;&lt;div&gt;lighting tuning&lt;/div&gt;" style="text;html=1;align=center;verticalAlign=middle;resizable=0;points=[];autosize=1;strokeColor=none;fillColor=none;" parent="SBJIOkQ2_eh-6NDm1D8v-125" vertex="1">
          <mxGeometry x="143.75" y="181.9572727272727" width="95" height="45" as="geometry" />
        </mxCell>
        <mxCell id="SBJIOkQ2_eh-6NDm1D8v-185" value="&amp;lt;figure&amp;gt;" style="rounded=0;whiteSpace=wrap;html=1;" parent="SBJIOkQ2_eh-6NDm1D8v-125" vertex="1">
          <mxGeometry x="33.75" y="84.99909090909091" width="70" height="36.590909090909086" as="geometry" />
        </mxCell>
        <mxCell id="SBJIOkQ2_eh-6NDm1D8v-186" value="&amp;lt;figure&amp;gt;" style="rounded=0;whiteSpace=wrap;html=1;" parent="SBJIOkQ2_eh-6NDm1D8v-125" vertex="1">
          <mxGeometry x="33.75" y="152.68454545454543" width="70" height="36.590909090909086" as="geometry" />
        </mxCell>
        <mxCell id="SBJIOkQ2_eh-6NDm1D8v-187" value="&amp;lt;figure&amp;gt;" style="rounded=0;whiteSpace=wrap;html=1;" parent="SBJIOkQ2_eh-6NDm1D8v-125" vertex="1">
          <mxGeometry x="156.25" y="84.99909090909091" width="70" height="36.590909090909086" as="geometry" />
        </mxCell>
        <mxCell id="SBJIOkQ2_eh-6NDm1D8v-188" value="&amp;lt;figure&amp;gt;" style="rounded=0;whiteSpace=wrap;html=1;" parent="SBJIOkQ2_eh-6NDm1D8v-125" vertex="1">
          <mxGeometry x="156.25" y="152.68454545454543" width="70" height="36.590909090909086" as="geometry" />
        </mxCell>
        <mxCell id="SBJIOkQ2_eh-6NDm1D8v-126" value="" style="endArrow=oval;html=1;rounded=1;fontSize=13;exitX=0;exitY=0.5;exitDx=0;exitDy=0;entryX=0;entryY=0.5;entryDx=0;entryDy=0;edgeStyle=orthogonalEdgeStyle;endFill=0;strokeWidth=2;" parent="1" source="SBJIOkQ2_eh-6NDm1D8v-123" target="SBJIOkQ2_eh-6NDm1D8v-95" edge="1">
          <mxGeometry width="50" height="50" relative="1" as="geometry">
            <mxPoint x="365" y="908" as="sourcePoint" />
            <mxPoint x="415" y="858" as="targetPoint" />
            <Array as="points">
              <mxPoint x="-30" y="908" />
              <mxPoint x="-30" y="708" />
            </Array>
          </mxGeometry>
        </mxCell>
        <mxCell id="SBJIOkQ2_eh-6NDm1D8v-131" value="" style="endArrow=oval;html=1;rounded=1;fontSize=13;exitX=0;exitY=0.5;exitDx=0;exitDy=0;entryX=0.007;entryY=0.45;entryDx=0;entryDy=0;edgeStyle=orthogonalEdgeStyle;entryPerimeter=0;endFill=0;strokeWidth=2;" parent="1" source="SBJIOkQ2_eh-6NDm1D8v-123" target="SBJIOkQ2_eh-6NDm1D8v-109" edge="1">
          <mxGeometry width="50" height="50" relative="1" as="geometry">
            <mxPoint x="490" y="916" as="sourcePoint" />
            <mxPoint x="180" y="723" as="targetPoint" />
            <Array as="points">
              <mxPoint x="-30" y="908" />
              <mxPoint x="-30" y="606" />
            </Array>
          </mxGeometry>
        </mxCell>
        <mxCell id="SBJIOkQ2_eh-6NDm1D8v-132" value="" style="endArrow=oval;html=1;rounded=1;fontSize=13;exitX=0;exitY=0.5;exitDx=0;exitDy=0;entryX=0;entryY=0.5;entryDx=0;entryDy=0;edgeStyle=orthogonalEdgeStyle;endFill=0;strokeWidth=2;" parent="1" source="SBJIOkQ2_eh-6NDm1D8v-123" target="SBJIOkQ2_eh-6NDm1D8v-24" edge="1">
          <mxGeometry width="50" height="50" relative="1" as="geometry">
            <mxPoint x="540" y="978" as="sourcePoint" />
            <mxPoint x="231" y="683" as="targetPoint" />
            <Array as="points">
              <mxPoint x="-30" y="908" />
              <mxPoint x="-30" y="515" />
            </Array>
          </mxGeometry>
        </mxCell>
        <mxCell id="SBJIOkQ2_eh-6NDm1D8v-176" value="Every platform involved in eval should align with the protocal" style="edgeLabel;html=1;align=center;verticalAlign=middle;resizable=0;points=[];labelBackgroundColor=none;fontStyle=1" parent="SBJIOkQ2_eh-6NDm1D8v-132" vertex="1" connectable="0">
          <mxGeometry x="-0.2184" y="2" relative="1" as="geometry">
            <mxPoint x="92" y="8" as="offset" />
          </mxGeometry>
        </mxCell>
        <mxCell id="SBJIOkQ2_eh-6NDm1D8v-133" value="&lt;span style=&quot;font-size: 20px;&quot;&gt;&lt;b&gt;Policy&lt;/b&gt;&lt;/span&gt;" style="rounded=1;whiteSpace=wrap;html=1;fillColor=#fff2cc;strokeColor=#d6b656;strokeWidth=2;verticalAlign=top;spacingTop=8;" parent="1" vertex="1">
          <mxGeometry x="180" y="469.75" width="100" height="303.25" as="geometry" />
        </mxCell>
        <mxCell id="SBJIOkQ2_eh-6NDm1D8v-134" value="" style="group" parent="1" vertex="1" connectable="0">
          <mxGeometry x="480" y="438" width="163" height="33" as="geometry" />
        </mxCell>
        <mxCell id="SBJIOkQ2_eh-6NDm1D8v-66" value="" style="sketch=0;outlineConnect=0;fontColor=#232F3E;gradientColor=none;fillColor=light-dark(#668B63,#BEC8D4);strokeColor=none;dashed=0;verticalLabelPosition=bottom;verticalAlign=top;align=center;html=1;fontSize=12;fontStyle=0;aspect=fixed;pointerEvents=1;shape=mxgraph.aws4.internet;" parent="SBJIOkQ2_eh-6NDm1D8v-134" vertex="1">
          <mxGeometry y="4.5" width="30.88" height="19" as="geometry" />
        </mxCell>
        <mxCell id="SBJIOkQ2_eh-6NDm1D8v-67" value="&lt;font style=&quot;font-size: 15px;&quot;&gt;&lt;b style=&quot;&quot;&gt;Public resources&lt;/b&gt;&lt;/font&gt;" style="text;html=1;align=center;verticalAlign=middle;resizable=0;points=[];autosize=1;strokeColor=none;fillColor=none;fontColor=light-dark(#668B63,#BEC8D4);labelBorderColor=none;fontSize=13;" parent="SBJIOkQ2_eh-6NDm1D8v-134" vertex="1">
          <mxGeometry x="26.88" y="-2" width="140" height="35" as="geometry" />
        </mxCell>
        <mxCell id="SBJIOkQ2_eh-6NDm1D8v-136" value="" style="edgeStyle=segmentEdgeStyle;endArrow=classic;html=1;curved=0;rounded=0;endSize=8;startSize=8;exitX=0;exitY=0;exitDx=130;exitDy=52.675000000000004;exitPerimeter=0;entryX=0;entryY=0.25;entryDx=0;entryDy=0;strokeWidth=2;" parent="1" source="SBJIOkQ2_eh-6NDm1D8v-84" target="SBJIOkQ2_eh-6NDm1D8v-19" edge="1">
          <mxGeometry width="50" height="50" relative="1" as="geometry">
            <mxPoint x="560" y="633" as="sourcePoint" />
            <mxPoint x="610" y="583" as="targetPoint" />
            <Array as="points">
              <mxPoint x="465" y="526" />
              <mxPoint x="465" y="571" />
            </Array>
          </mxGeometry>
        </mxCell>
        <mxCell id="SBJIOkQ2_eh-6NDm1D8v-138" style="edgeStyle=orthogonalEdgeStyle;rounded=0;orthogonalLoop=1;jettySize=auto;html=1;exitX=0;exitY=0;exitDx=130;exitDy=52.675000000000004;exitPerimeter=0;strokeWidth=2;" parent="1" source="SBJIOkQ2_eh-6NDm1D8v-113" edge="1">
          <mxGeometry relative="1" as="geometry">
            <mxPoint x="510" y="620" as="targetPoint" />
          </mxGeometry>
        </mxCell>
        <mxCell id="SBJIOkQ2_eh-6NDm1D8v-139" style="edgeStyle=orthogonalEdgeStyle;rounded=0;orthogonalLoop=1;jettySize=auto;html=1;exitX=0;exitY=0;exitDx=130;exitDy=52.675000000000004;exitPerimeter=0;entryX=-0.02;entryY=0.749;entryDx=0;entryDy=0;entryPerimeter=0;strokeWidth=2;" parent="1" source="SBJIOkQ2_eh-6NDm1D8v-99" target="SBJIOkQ2_eh-6NDm1D8v-19" edge="1">
          <mxGeometry relative="1" as="geometry">
            <Array as="points">
              <mxPoint x="465" y="719" />
              <mxPoint x="465" y="665" />
            </Array>
          </mxGeometry>
        </mxCell>
        <mxCell id="SBJIOkQ2_eh-6NDm1D8v-142" value="" style="group" parent="1" vertex="1" connectable="0">
          <mxGeometry x="640" y="653" width="139" height="92.75" as="geometry" />
        </mxCell>
        <mxCell id="SBJIOkQ2_eh-6NDm1D8v-143" value="" style="group" parent="SBJIOkQ2_eh-6NDm1D8v-142" vertex="1" connectable="0">
          <mxGeometry width="139" height="92.75" as="geometry" />
        </mxCell>
        <mxCell id="SBJIOkQ2_eh-6NDm1D8v-144" value="" style="verticalLabelPosition=bottom;verticalAlign=top;html=1;shape=mxgraph.basic.layered_rect;dx=20.35;outlineConnect=0;whiteSpace=wrap;fillColor=#d5e8d4;strokeColor=#82b366;" parent="SBJIOkQ2_eh-6NDm1D8v-143" vertex="1">
          <mxGeometry width="130" height="85" as="geometry" />
        </mxCell>
        <mxCell id="SBJIOkQ2_eh-6NDm1D8v-147" value="Difficulty" style="text;html=1;align=center;verticalAlign=middle;resizable=0;points=[];autosize=1;strokeColor=none;fillColor=none;" parent="SBJIOkQ2_eh-6NDm1D8v-143" vertex="1">
          <mxGeometry x="30" y="2.5" width="65" height="30" as="geometry" />
        </mxCell>
        <mxCell id="SBJIOkQ2_eh-6NDm1D8v-148" value="Performance" style="text;html=1;align=center;verticalAlign=middle;resizable=0;points=[];autosize=1;strokeColor=none;fillColor=none;" parent="SBJIOkQ2_eh-6NDm1D8v-143" vertex="1">
          <mxGeometry x="25" y="29.75" width="90" height="30" as="geometry" />
        </mxCell>
        <mxCell id="SBJIOkQ2_eh-6NDm1D8v-149" value="&lt;font&gt;test #X&lt;/font&gt;" style="text;html=1;align=center;verticalAlign=middle;resizable=0;points=[];autosize=1;strokeColor=none;fillColor=none;fontSize=9;" parent="SBJIOkQ2_eh-6NDm1D8v-143" vertex="1">
          <mxGeometry x="67" y="46.25" width="50" height="25" as="geometry" />
        </mxCell>
        <mxCell id="SBJIOkQ2_eh-6NDm1D8v-150" value="&lt;font&gt;test #Z&lt;/font&gt;" style="text;html=1;align=center;verticalAlign=middle;resizable=0;points=[];autosize=1;strokeColor=none;fillColor=none;fontSize=9;" parent="SBJIOkQ2_eh-6NDm1D8v-143" vertex="1">
          <mxGeometry x="87" y="67.75" width="50" height="25" as="geometry" />
        </mxCell>
        <mxCell id="SBJIOkQ2_eh-6NDm1D8v-151" value="&lt;font&gt;test #Y&lt;/font&gt;" style="text;html=1;align=center;verticalAlign=middle;resizable=0;points=[];autosize=1;strokeColor=none;fillColor=none;fontSize=9;" parent="SBJIOkQ2_eh-6NDm1D8v-143" vertex="1">
          <mxGeometry x="77" y="57.75" width="50" height="25" as="geometry" />
        </mxCell>
        <mxCell id="SBJIOkQ2_eh-6NDm1D8v-154" value="" style="sketch=0;outlineConnect=0;fontColor=#232F3E;gradientColor=none;fillColor=#232F3D;strokeColor=none;dashed=0;verticalLabelPosition=bottom;verticalAlign=top;align=center;html=1;fontSize=12;fontStyle=0;aspect=fixed;pointerEvents=1;shape=mxgraph.aws4.gear;" parent="SBJIOkQ2_eh-6NDm1D8v-143" vertex="1">
          <mxGeometry x="5" y="5" width="25" height="25" as="geometry" />
        </mxCell>
        <mxCell id="SBJIOkQ2_eh-6NDm1D8v-159" value="" style="sketch=0;pointerEvents=1;shadow=0;dashed=0;html=1;strokeColor=none;labelPosition=center;verticalLabelPosition=bottom;verticalAlign=top;align=center;fillColor=#000000;shape=mxgraph.mscae.intune.device_health" parent="SBJIOkQ2_eh-6NDm1D8v-143" vertex="1">
          <mxGeometry x="5" y="35.19" width="25" height="19.13" as="geometry" />
        </mxCell>
        <mxCell id="SBJIOkQ2_eh-6NDm1D8v-153" value="" style="group" parent="1" vertex="1" connectable="0">
          <mxGeometry x="-25" y="437" width="181.01" height="33" as="geometry" />
        </mxCell>
        <mxCell id="SBJIOkQ2_eh-6NDm1D8v-43" value="&lt;font style=&quot;font-size: 15px;&quot;&gt;&lt;b style=&quot;&quot;&gt;Community of users&lt;/b&gt;&lt;/font&gt;" style="text;html=1;align=center;verticalAlign=middle;resizable=0;points=[];autosize=1;strokeColor=none;fillColor=none;fontColor=light-dark(#4b227c, #ededed);labelBorderColor=none;" parent="SBJIOkQ2_eh-6NDm1D8v-153" vertex="1">
          <mxGeometry x="19.999999999999993" y="-2.5" width="165" height="35" as="geometry" />
        </mxCell>
        <mxCell id="SBJIOkQ2_eh-6NDm1D8v-152" value="" style="sketch=0;outlineConnect=0;fontColor=#232F3E;gradientColor=none;fillColor=light-dark(#482877, #bec8d4);strokeColor=none;dashed=0;verticalLabelPosition=bottom;verticalAlign=top;align=center;html=1;fontSize=12;fontStyle=0;aspect=fixed;pointerEvents=1;shape=mxgraph.aws4.users;" parent="SBJIOkQ2_eh-6NDm1D8v-153" vertex="1">
          <mxGeometry y="2" width="26" height="26" as="geometry" />
        </mxCell>
        <mxCell id="SBJIOkQ2_eh-6NDm1D8v-158" value="" style="sketch=0;outlineConnect=0;fillColor=light-dark(#ceb665, #281d00);strokeColor=none;dashed=0;verticalLabelPosition=bottom;verticalAlign=top;align=center;html=1;fontSize=12;fontStyle=0;aspect=fixed;pointerEvents=1;shape=mxgraph.aws4.sagemaker_model;" parent="1" vertex="1">
          <mxGeometry x="205" y="683" width="50" height="50" as="geometry" />
        </mxCell>
        <mxCell id="SBJIOkQ2_eh-6NDm1D8v-161" style="edgeStyle=orthogonalEdgeStyle;rounded=0;orthogonalLoop=1;jettySize=auto;html=1;exitX=1;exitY=0.5;exitDx=0;exitDy=0;strokeWidth=2;fillColor=#d5e8d4;strokeColor=#82b366;" parent="1" source="SBJIOkQ2_eh-6NDm1D8v-19" target="SBJIOkQ2_eh-6NDm1D8v-144" edge="1">
          <mxGeometry relative="1" as="geometry" />
        </mxCell>
        <mxCell id="SBJIOkQ2_eh-6NDm1D8v-162" value="&lt;span style=&quot;text-wrap-mode: wrap; font-size: 20px;&quot;&gt;&lt;b&gt;History&lt;/b&gt;&lt;/span&gt;&lt;div style=&quot;text-wrap-mode: wrap;&quot;&gt;&lt;span style=&quot;font-size: 20px;&quot;&gt;&lt;b&gt;Results&lt;/b&gt;&lt;/span&gt;&lt;/div&gt;" style="text;html=1;align=center;verticalAlign=middle;resizable=0;points=[];autosize=1;strokeColor=none;fillColor=none;" parent="1" vertex="1">
          <mxGeometry x="725" y="508.62" width="95" height="65" as="geometry" />
        </mxCell>
        <mxCell id="SBJIOkQ2_eh-6NDm1D8v-164" value="" style="sketch=0;outlineConnect=0;fontColor=#232F3E;gradientColor=none;fillColor=#000000;strokeColor=none;dashed=0;verticalLabelPosition=bottom;verticalAlign=top;align=center;html=1;fontSize=12;fontStyle=0;aspect=fixed;pointerEvents=1;shape=mxgraph.aws4.iot_analytics_data_store;" parent="1" vertex="1">
          <mxGeometry x="830" y="515.49" width="35.48" height="51.25" as="geometry" />
        </mxCell>
        <mxCell id="SBJIOkQ2_eh-6NDm1D8v-165" style="edgeStyle=orthogonalEdgeStyle;rounded=0;orthogonalLoop=1;jettySize=auto;html=1;strokeWidth=2;fillColor=#d5e8d4;strokeColor=#82b366;entryX=0.171;entryY=0.986;entryDx=0;entryDy=0;entryPerimeter=0;" parent="1" source="SBJIOkQ2_eh-6NDm1D8v-144" target="SBJIOkQ2_eh-6NDm1D8v-21" edge="1">
          <mxGeometry relative="1" as="geometry">
            <mxPoint x="720" y="678" as="sourcePoint" />
            <mxPoint x="745" y="678" as="targetPoint" />
          </mxGeometry>
        </mxCell>
        <mxCell id="SBJIOkQ2_eh-6NDm1D8v-174" value="Save" style="edgeLabel;html=1;align=center;verticalAlign=middle;resizable=0;points=[];fontStyle=1;labelBackgroundColor=none;fontColor=light-dark(#668B63,#BEC8D4);" parent="SBJIOkQ2_eh-6NDm1D8v-165" vertex="1" connectable="0">
          <mxGeometry x="-0.2607" y="-2" relative="1" as="geometry">
            <mxPoint x="16" y="-5" as="offset" />
          </mxGeometry>
        </mxCell>
        <mxCell id="SBJIOkQ2_eh-6NDm1D8v-166" style="edgeStyle=orthogonalEdgeStyle;rounded=0;orthogonalLoop=1;jettySize=auto;html=1;strokeWidth=2;fillColor=#d5e8d4;strokeColor=#82b366;entryX=0.5;entryY=0;entryDx=0;entryDy=0;exitX=0.703;exitY=1.002;exitDx=0;exitDy=0;exitPerimeter=0;" parent="1" source="SBJIOkQ2_eh-6NDm1D8v-21" target="SBJIOkQ2_eh-6NDm1D8v-20" edge="1">
          <mxGeometry relative="1" as="geometry">
            <mxPoint x="845" y="676" as="sourcePoint" />
            <mxPoint x="845" y="603" as="targetPoint" />
          </mxGeometry>
        </mxCell>
        <mxCell id="SBJIOkQ2_eh-6NDm1D8v-175" value="Fetch" style="edgeLabel;html=1;align=center;verticalAlign=middle;resizable=0;points=[];fontStyle=1;labelBackgroundColor=none;fontColor=light-dark(#668B63,#BEC8D4);" parent="SBJIOkQ2_eh-6NDm1D8v-166" vertex="1" connectable="0">
          <mxGeometry x="-0.0693" y="1" relative="1" as="geometry">
            <mxPoint x="-21" y="-1" as="offset" />
          </mxGeometry>
        </mxCell>
        <mxCell id="SBJIOkQ2_eh-6NDm1D8v-167" style="edgeStyle=orthogonalEdgeStyle;rounded=0;orthogonalLoop=1;jettySize=auto;html=1;strokeWidth=2;fillColor=#d5e8d4;strokeColor=#82b366;entryX=0;entryY=0.538;entryDx=0;entryDy=0;entryPerimeter=0;exitX=0;exitY=0;exitDx=130;exitDy=52.675000000000004;exitPerimeter=0;" parent="1" source="SBJIOkQ2_eh-6NDm1D8v-144" target="SBJIOkQ2_eh-6NDm1D8v-20" edge="1">
          <mxGeometry relative="1" as="geometry">
            <mxPoint x="1020" y="713" as="sourcePoint" />
            <mxPoint x="1105" y="653" as="targetPoint" />
          </mxGeometry>
        </mxCell>
        <mxCell id="SBJIOkQ2_eh-6NDm1D8v-171" value="" style="group" parent="1" vertex="1" connectable="0">
          <mxGeometry x="850" y="820" width="190" height="80" as="geometry" />
        </mxCell>
        <mxCell id="SBJIOkQ2_eh-6NDm1D8v-168" value="&lt;span style=&quot;font-size: 20px;&quot;&gt;&lt;b&gt;Score&lt;/b&gt;&lt;/span&gt;&lt;div&gt;&lt;font size=&quot;1&quot;&gt;converges as test results accumulate&lt;/font&gt;&lt;/div&gt;" style="rounded=0;whiteSpace=wrap;html=1;fillColor=#fff2cc;strokeColor=#d6b656;strokeWidth=2;glass=0;align=left;spacingLeft=15;spacingRight=41;" parent="SBJIOkQ2_eh-6NDm1D8v-171" vertex="1">
          <mxGeometry x="5" width="190" height="80" as="geometry" />
        </mxCell>
        <mxCell id="SBJIOkQ2_eh-6NDm1D8v-170" value="" style="sketch=0;outlineConnect=0;fontColor=#232F3E;gradientColor=none;fillColor=#232F3D;strokeColor=none;dashed=0;verticalLabelPosition=bottom;verticalAlign=top;align=center;html=1;fontSize=12;fontStyle=0;aspect=fixed;pointerEvents=1;shape=mxgraph.aws4.metrics;" parent="SBJIOkQ2_eh-6NDm1D8v-171" vertex="1">
          <mxGeometry x="126.65999999999997" y="18" width="48.34" height="44" as="geometry" />
        </mxCell>
        <mxCell id="SBJIOkQ2_eh-6NDm1D8v-179" value="Results on random&lt;div&gt;&amp;nbsp;&lt;span style=&quot;background-color: transparent; color: light-dark(rgb(0, 0, 0), rgb(255, 255, 255));&quot;&gt;test settings&lt;/span&gt;&lt;div&gt;&lt;span style=&quot;background-color: transparent; color: light-dark(rgb(0, 0, 0), rgb(255, 255, 255));&quot;&gt;&amp;nbsp;defined by users&lt;/span&gt;&lt;/div&gt;&lt;/div&gt;" style="text;html=1;align=center;verticalAlign=middle;resizable=0;points=[];autosize=1;strokeColor=none;fillColor=none;fontStyle=1" parent="1" vertex="1">
          <mxGeometry x="319.5" y="748" width="120" height="60" as="geometry" />
        </mxCell>
        <mxCell id="SBJIOkQ2_eh-6NDm1D8v-189" value="ACT" style="rounded=1;whiteSpace=wrap;html=1;fillColor=#dae8fc;strokeColor=#6c8ebf;" parent="1" vertex="1">
          <mxGeometry x="188" y="517.24" width="85" height="30" as="geometry" />
        </mxCell>
        <mxCell id="SBJIOkQ2_eh-6NDm1D8v-190" value="DP" style="rounded=1;whiteSpace=wrap;html=1;fillColor=#dae8fc;strokeColor=#6c8ebf;" parent="1" vertex="1">
          <mxGeometry x="187.5" y="552.87" width="85" height="30" as="geometry" />
        </mxCell>
        <mxCell id="SBJIOkQ2_eh-6NDm1D8v-191" value="RDT" style="rounded=1;whiteSpace=wrap;html=1;fillColor=#dae8fc;strokeColor=#6c8ebf;" parent="1" vertex="1">
          <mxGeometry x="187.5" y="589.75" width="85" height="30" as="geometry" />
        </mxCell>
        <mxCell id="SBJIOkQ2_eh-6NDm1D8v-192" value="Pi0" style="rounded=1;whiteSpace=wrap;html=1;fillColor=#dae8fc;strokeColor=#6c8ebf;" parent="1" vertex="1">
          <mxGeometry x="187.5" y="624.75" width="85" height="30" as="geometry" />
        </mxCell>
        <mxCell id="SBJIOkQ2_eh-6NDm1D8v-195" style="edgeStyle=orthogonalEdgeStyle;rounded=0;orthogonalLoop=1;jettySize=auto;html=1;exitX=0.5;exitY=0;exitDx=0;exitDy=0;entryX=0.5;entryY=1;entryDx=0;entryDy=0;fillColor=#fff2cc;strokeColor=#d6b656;strokeWidth=4;" parent="1" source="SBJIOkQ2_eh-6NDm1D8v-193" target="SBJIOkQ2_eh-6NDm1D8v-133" edge="1">
          <mxGeometry relative="1" as="geometry" />
        </mxCell>
        <mxCell id="SBJIOkQ2_eh-6NDm1D8v-193" value="&lt;b&gt;&lt;font style=&quot;font-size: 17px;&quot;&gt;Task&lt;/font&gt;&lt;/b&gt;" style="rounded=1;whiteSpace=wrap;html=1;fillColor=#fff2cc;strokeColor=#d6b656;strokeWidth=2;" parent="1" vertex="1">
          <mxGeometry x="170" y="815" width="120" height="60" as="geometry" />
        </mxCell>
        <mxCell id="SBJIOkQ2_eh-6NDm1D8v-201" value="" style="group" parent="1" vertex="1" connectable="0">
          <mxGeometry x="98" y="573" width="70" height="70" as="geometry" />
        </mxCell>
        <mxCell id="SBJIOkQ2_eh-6NDm1D8v-198" value="" style="verticalLabelPosition=bottom;verticalAlign=top;html=1;shape=mxgraph.basic.layered_rect;dx=10;outlineConnect=0;whiteSpace=wrap;fillColor=#fff2cc;strokeColor=#d6b656;" parent="SBJIOkQ2_eh-6NDm1D8v-201" vertex="1">
          <mxGeometry x="1.9444444444444444" width="68.05555555555556" height="70" as="geometry" />
        </mxCell>
        <mxCell id="SBJIOkQ2_eh-6NDm1D8v-200" value="Random&lt;div&gt;test&lt;/div&gt;&lt;div&gt;data&lt;/div&gt;" style="text;html=1;align=center;verticalAlign=middle;resizable=0;points=[];autosize=1;strokeColor=none;fillColor=none;" parent="SBJIOkQ2_eh-6NDm1D8v-201" vertex="1">
          <mxGeometry x="-0.9722222222222222" width="65" height="60" as="geometry" />
        </mxCell>
        <mxCell id="SBJIOkQ2_eh-6NDm1D8v-202" value="" style="group" parent="1" vertex="1" connectable="0">
          <mxGeometry x="98" y="673" width="70" height="70" as="geometry" />
        </mxCell>
        <mxCell id="SBJIOkQ2_eh-6NDm1D8v-203" value="" style="verticalLabelPosition=bottom;verticalAlign=top;html=1;shape=mxgraph.basic.layered_rect;dx=10;outlineConnect=0;whiteSpace=wrap;fillColor=#fff2cc;strokeColor=#d6b656;" parent="SBJIOkQ2_eh-6NDm1D8v-202" vertex="1">
          <mxGeometry x="1.9444444444444444" width="68.05555555555556" height="70" as="geometry" />
        </mxCell>
        <mxCell id="SBJIOkQ2_eh-6NDm1D8v-204" value="Random&lt;div&gt;test&lt;/div&gt;&lt;div&gt;data&lt;/div&gt;" style="text;html=1;align=center;verticalAlign=middle;resizable=0;points=[];autosize=1;strokeColor=none;fillColor=none;" parent="SBJIOkQ2_eh-6NDm1D8v-202" vertex="1">
          <mxGeometry x="-0.9722222222222222" width="65" height="60" as="geometry" />
        </mxCell>
        <mxCell id="SBJIOkQ2_eh-6NDm1D8v-205" value="" style="group" parent="1" vertex="1" connectable="0">
          <mxGeometry x="98" y="477.24" width="70" height="70" as="geometry" />
        </mxCell>
        <mxCell id="SBJIOkQ2_eh-6NDm1D8v-206" value="" style="verticalLabelPosition=bottom;verticalAlign=top;html=1;shape=mxgraph.basic.layered_rect;dx=10;outlineConnect=0;whiteSpace=wrap;fillColor=#fff2cc;strokeColor=#d6b656;" parent="SBJIOkQ2_eh-6NDm1D8v-205" vertex="1">
          <mxGeometry x="1.9444444444444444" width="68.05555555555556" height="70" as="geometry" />
        </mxCell>
        <mxCell id="SBJIOkQ2_eh-6NDm1D8v-207" value="Random&lt;div&gt;test&lt;/div&gt;&lt;div&gt;data&lt;/div&gt;" style="text;html=1;align=center;verticalAlign=middle;resizable=0;points=[];autosize=1;strokeColor=none;fillColor=none;" parent="SBJIOkQ2_eh-6NDm1D8v-205" vertex="1">
          <mxGeometry x="-0.9722222222222222" width="65" height="60" as="geometry" />
        </mxCell>
        <mxCell id="SBJIOkQ2_eh-6NDm1D8v-209" value="&lt;font style=&quot;font-size: 17px;&quot;&gt;undiscrimitive result ❌&lt;/font&gt;" style="text;align=right;verticalAlign=middle;resizable=0;points=[];autosize=1;strokeColor=none;fillColor=none;html=1;" parent="1" vertex="1">
          <mxGeometry x="32" y="284" width="200" height="35" as="geometry" />
        </mxCell>
        <mxCell id="SBJIOkQ2_eh-6NDm1D8v-212" value="&lt;font style=&quot;font-size: 17px;&quot;&gt;&lt;font style=&quot;&quot;&gt;difficult for collaboration&amp;nbsp;&lt;/font&gt;❌&lt;/font&gt;" style="text;align=right;verticalAlign=middle;resizable=0;points=[];autosize=1;strokeColor=none;fillColor=none;html=1;" parent="1" vertex="1">
          <mxGeometry x="273" y="285" width="225" height="35" as="geometry" />
        </mxCell>
        <mxCell id="SBJIOkQ2_eh-6NDm1D8v-213" value="&lt;font style=&quot;font-size: 17px;&quot;&gt;&lt;font style=&quot;&quot;&gt;not flexible&amp;nbsp;&amp;nbsp;&lt;/font&gt;❌&lt;/font&gt;" style="text;align=right;verticalAlign=middle;resizable=0;points=[];autosize=1;strokeColor=none;fillColor=none;html=1;" parent="1" vertex="1">
          <mxGeometry x="572.5" y="285" width="135" height="35" as="geometry" />
        </mxCell>
        <mxCell id="SBJIOkQ2_eh-6NDm1D8v-214" value="&lt;font style=&quot;font-size: 17px;&quot;&gt;&lt;font style=&quot;&quot;&gt;huge repetitive labor&amp;nbsp;&lt;/font&gt;❌&lt;/font&gt;" style="text;align=right;verticalAlign=middle;resizable=0;points=[];autosize=1;strokeColor=none;fillColor=none;html=1;" parent="1" vertex="1">
          <mxGeometry x="796.75" y="285" width="205" height="35" as="geometry" />
        </mxCell>
        <mxCell id="SBJIOkQ2_eh-6NDm1D8v-220" value="&lt;span style=&quot;font-size: 20px;&quot;&gt;&lt;b&gt;AAAAAAAA&lt;/b&gt;&lt;/span&gt;" style="rounded=1;whiteSpace=wrap;html=1;fillColor=#dae8fc;strokeColor=#6c8ebf;align=left;spacingLeft=100;" parent="1" vertex="1">
          <mxGeometry x="1010" y="460" width="265" height="94" as="geometry" />
        </mxCell>
        <mxCell id="SBJIOkQ2_eh-6NDm1D8v-232" value="&amp;lt;figure&amp;gt;" style="rounded=0;whiteSpace=wrap;html=1;" parent="1" vertex="1">
          <mxGeometry x="1030" y="476.34" width="65" height="63.06" as="geometry" />
        </mxCell>
        <mxCell id="SBJIOkQ2_eh-6NDm1D8v-233" value="&lt;span style=&quot;font-size: 20px;&quot;&gt;&lt;b&gt;BBBBBBBB&lt;/b&gt;&lt;/span&gt;" style="rounded=1;whiteSpace=wrap;html=1;fillColor=#dae8fc;strokeColor=#6c8ebf;align=left;spacingLeft=100;" parent="1" vertex="1">
          <mxGeometry x="1010" y="571.87" width="265" height="94" as="geometry" />
        </mxCell>
        <mxCell id="SBJIOkQ2_eh-6NDm1D8v-234" value="&lt;span style=&quot;font-size: 20px;&quot;&gt;&lt;b&gt;CCCCCCCC&lt;/b&gt;&lt;/span&gt;" style="rounded=1;whiteSpace=wrap;html=1;fillColor=#dae8fc;strokeColor=#6c8ebf;align=left;spacingLeft=100;" parent="1" vertex="1">
          <mxGeometry x="1010" y="679" width="265" height="94" as="geometry" />
        </mxCell>
        <mxCell id="SBJIOkQ2_eh-6NDm1D8v-235" value="&amp;lt;figure&amp;gt;" style="rounded=0;whiteSpace=wrap;html=1;" parent="1" vertex="1">
          <mxGeometry x="1030" y="587.34" width="65" height="63.06" as="geometry" />
        </mxCell>
        <mxCell id="SBJIOkQ2_eh-6NDm1D8v-236" value="&amp;lt;figure&amp;gt;" style="rounded=0;whiteSpace=wrap;html=1;" parent="1" vertex="1">
          <mxGeometry x="1030" y="694.47" width="65" height="63.06" as="geometry" />
        </mxCell>
        <mxCell id="2U-sOm1JX4IMPe51Hoyo-111" value="" style="group;fillColor=none;strokeColor=none;" vertex="1" connectable="0" parent="1">
          <mxGeometry x="35" y="70" width="198.5" height="210" as="geometry" />
        </mxCell>
        <mxCell id="2U-sOm1JX4IMPe51Hoyo-1" value="" style="rounded=0;whiteSpace=wrap;html=1;strokeWidth=3;fillColor=#f8cecc;strokeColor=#b85450;" vertex="1" parent="2U-sOm1JX4IMPe51Hoyo-111">
          <mxGeometry width="198.5" height="210" as="geometry" />
        </mxCell>
        <mxCell id="2U-sOm1JX4IMPe51Hoyo-9" value="Hard&lt;div&gt;setting&lt;/div&gt;" style="rounded=0;whiteSpace=wrap;html=1;strokeWidth=2;" vertex="1" parent="2U-sOm1JX4IMPe51Hoyo-111">
          <mxGeometry x="18.00999999999999" y="10" width="55" height="55" as="geometry" />
        </mxCell>
        <mxCell id="2U-sOm1JX4IMPe51Hoyo-10" value="&lt;div style=&quot;line-height: 80%;&quot;&gt;&lt;font style=&quot;line-height: 80%; font-size: 9px;&quot;&gt;Easy&lt;br&gt;&lt;/font&gt;&lt;div&gt;&lt;font style=&quot;line-height: 80%; font-size: 9px;&quot;&gt;setting&lt;/font&gt;&lt;/div&gt;&lt;/div&gt;" style="rounded=0;whiteSpace=wrap;html=1;spacing=-1;strokeWidth=2;" vertex="1" parent="2U-sOm1JX4IMPe51Hoyo-111">
          <mxGeometry x="145.01" y="39" width="30.5" height="25" as="geometry" />
        </mxCell>
        <mxCell id="2U-sOm1JX4IMPe51Hoyo-105" value="Hard and easy settings contribute equally to the ranking" style="rounded=0;whiteSpace=wrap;strokeColor=none;fillColor=none;fontSize=17;fontStyle=1" vertex="1" parent="2U-sOm1JX4IMPe51Hoyo-111">
          <mxGeometry x="4" y="130" width="190" height="60" as="geometry" />
        </mxCell>
        <mxCell id="2U-sOm1JX4IMPe51Hoyo-3" value="" style="triangle;whiteSpace=wrap;html=1;rotation=-90;fillColor=#000000;" vertex="1" parent="2U-sOm1JX4IMPe51Hoyo-111">
          <mxGeometry x="89.32999999999998" y="81.75" width="27.75" height="20" as="geometry" />
        </mxCell>
        <mxCell id="2U-sOm1JX4IMPe51Hoyo-4" value="" style="rounded=0;whiteSpace=wrap;html=1;fillColor=#000000;" vertex="1" parent="2U-sOm1JX4IMPe51Hoyo-111">
          <mxGeometry x="46.38499999999999" y="75.005" width="113.63" height="3.75" as="geometry" />
        </mxCell>
        <mxCell id="2U-sOm1JX4IMPe51Hoyo-6" value="" style="shape=or;whiteSpace=wrap;html=1;rotation=90;fillColor=#000000;" vertex="1" parent="2U-sOm1JX4IMPe51Hoyo-111">
          <mxGeometry x="154.445" y="44.69499999999999" width="10.26" height="49.88" as="geometry" />
        </mxCell>
        <mxCell id="2U-sOm1JX4IMPe51Hoyo-8" value="" style="shape=or;whiteSpace=wrap;html=1;rotation=90;fillColor=#000000;" vertex="1" parent="2U-sOm1JX4IMPe51Hoyo-111">
          <mxGeometry x="41.00999999999999" y="45" width="10.26" height="49.88" as="geometry" />
        </mxCell>
        <mxCell id="2U-sOm1JX4IMPe51Hoyo-112" value="" style="group;fillColor=none;strokeColor=none;" vertex="1" connectable="0" parent="1">
          <mxGeometry x="285" y="70" width="198.5" height="210" as="geometry" />
        </mxCell>
        <mxCell id="2U-sOm1JX4IMPe51Hoyo-11" value="" style="rounded=0;whiteSpace=wrap;html=1;strokeWidth=3;fillColor=#f8cecc;strokeColor=#b85450;" vertex="1" parent="2U-sOm1JX4IMPe51Hoyo-112">
          <mxGeometry width="198.5" height="210" as="geometry" />
        </mxCell>
        <mxCell id="2U-sOm1JX4IMPe51Hoyo-15" value="" style="shape=mxgraph.signs.science.microscope;html=1;pointerEvents=1;fillColor=#000000;strokeColor=none;verticalLabelPosition=bottom;verticalAlign=top;align=center;sketch=0;" vertex="1" parent="2U-sOm1JX4IMPe51Hoyo-112">
          <mxGeometry x="28.5" y="28.730000000000004" width="33.57526033449038" height="45.54545454545456" as="geometry" />
        </mxCell>
        <mxCell id="2U-sOm1JX4IMPe51Hoyo-16" value="" style="shape=mxgraph.signs.science.microscope;html=1;pointerEvents=1;fillColor=#5D5D5D;strokeColor=none;verticalLabelPosition=bottom;verticalAlign=top;align=center;sketch=0;" vertex="1" parent="2U-sOm1JX4IMPe51Hoyo-112">
          <mxGeometry x="129.92000000000002" y="28.730000000000004" width="33.57526033449038" height="45.54545454545456" as="geometry" />
        </mxCell>
        <mxCell id="2U-sOm1JX4IMPe51Hoyo-17" value="" style="endArrow=oval;dashed=1;html=1;rounded=0;exitX=0.77;exitY=0;exitDx=0;exitDy=0;exitPerimeter=0;entryX=0.77;entryY=0;entryDx=0;entryDy=0;entryPerimeter=0;startArrow=oval;startFill=1;endFill=1;endSize=3;startSize=3;" edge="1" parent="2U-sOm1JX4IMPe51Hoyo-112" source="2U-sOm1JX4IMPe51Hoyo-15" target="2U-sOm1JX4IMPe51Hoyo-16">
          <mxGeometry width="50" height="50" relative="1" as="geometry">
            <mxPoint x="123.5" y="135" as="sourcePoint" />
            <mxPoint x="173.5" y="85" as="targetPoint" />
          </mxGeometry>
        </mxCell>
        <mxCell id="2U-sOm1JX4IMPe51Hoyo-18" value="" style="endArrow=oval;dashed=1;html=1;rounded=0;exitX=1;exitY=1;exitDx=0;exitDy=0;exitPerimeter=0;entryX=1;entryY=1;entryDx=0;entryDy=0;entryPerimeter=0;startArrow=oval;startFill=1;endFill=1;endSize=3;startSize=3;" edge="1" parent="2U-sOm1JX4IMPe51Hoyo-112" source="2U-sOm1JX4IMPe51Hoyo-15" target="2U-sOm1JX4IMPe51Hoyo-16">
          <mxGeometry width="50" height="50" relative="1" as="geometry">
            <mxPoint x="173.5" y="55" as="sourcePoint" />
            <mxPoint x="274.5" y="55" as="targetPoint" />
          </mxGeometry>
        </mxCell>
        <mxCell id="2U-sOm1JX4IMPe51Hoyo-19" value="" style="endArrow=oval;dashed=1;html=1;rounded=0;exitX=0.275;exitY=0.5;exitDx=0;exitDy=0;exitPerimeter=0;entryX=0.275;entryY=0.5;entryDx=0;entryDy=0;entryPerimeter=0;startArrow=oval;startFill=1;endFill=1;endSize=3;startSize=3;" edge="1" parent="2U-sOm1JX4IMPe51Hoyo-112" source="2U-sOm1JX4IMPe51Hoyo-15" target="2U-sOm1JX4IMPe51Hoyo-16">
          <mxGeometry width="50" height="50" relative="1" as="geometry">
            <mxPoint x="268.5" y="90" as="sourcePoint" />
            <mxPoint x="369.5" y="90" as="targetPoint" />
          </mxGeometry>
        </mxCell>
        <mxCell id="2U-sOm1JX4IMPe51Hoyo-106" value="Strict physical replication is required to guarentee reliability" style="rounded=0;whiteSpace=wrap;strokeColor=none;fillColor=none;fontSize=17;fontStyle=1" vertex="1" parent="2U-sOm1JX4IMPe51Hoyo-112">
          <mxGeometry x="3.5" y="115" width="190" height="60" as="geometry" />
        </mxCell>
        <mxCell id="2U-sOm1JX4IMPe51Hoyo-113" value="" style="group" vertex="1" connectable="0" parent="1">
          <mxGeometry x="540.75" y="70" width="198.5" height="210" as="geometry" />
        </mxCell>
        <mxCell id="2U-sOm1JX4IMPe51Hoyo-20" value="" style="rounded=0;whiteSpace=wrap;html=1;strokeWidth=3;fillColor=#f8cecc;strokeColor=#b85450;" vertex="1" parent="2U-sOm1JX4IMPe51Hoyo-113">
          <mxGeometry width="198.5" height="210" as="geometry" />
        </mxCell>
        <mxCell id="2U-sOm1JX4IMPe51Hoyo-21" value="&lt;b&gt;Test Settings&lt;/b&gt;" style="ellipse;whiteSpace=wrap;html=1;strokeWidth=3;" vertex="1" parent="2U-sOm1JX4IMPe51Hoyo-113">
          <mxGeometry x="101.63" y="5" width="90" height="125" as="geometry" />
        </mxCell>
        <mxCell id="2U-sOm1JX4IMPe51Hoyo-22" value="&lt;b&gt;Lab 1&lt;/b&gt;" style="whiteSpace=wrap;html=1;aspect=fixed;strokeWidth=3;" vertex="1" parent="2U-sOm1JX4IMPe51Hoyo-113">
          <mxGeometry x="16.629999999999995" y="5" width="40" height="40" as="geometry" />
        </mxCell>
        <mxCell id="2U-sOm1JX4IMPe51Hoyo-23" value="&lt;b&gt;Lab 3&lt;/b&gt;" style="whiteSpace=wrap;html=1;aspect=fixed;strokeWidth=3;" vertex="1" parent="2U-sOm1JX4IMPe51Hoyo-113">
          <mxGeometry x="21.629999999999995" y="100" width="40" height="40" as="geometry" />
        </mxCell>
        <mxCell id="2U-sOm1JX4IMPe51Hoyo-24" value="&lt;b&gt;Lab 2&lt;/b&gt;" style="whiteSpace=wrap;html=1;aspect=fixed;strokeWidth=3;" vertex="1" parent="2U-sOm1JX4IMPe51Hoyo-113">
          <mxGeometry x="46.629999999999995" y="53.01" width="40" height="40" as="geometry" />
        </mxCell>
        <mxCell id="2U-sOm1JX4IMPe51Hoyo-26" value="" style="endArrow=none;html=1;rounded=0;exitX=1;exitY=0.5;exitDx=0;exitDy=0;entryX=0.041;entryY=0.352;entryDx=0;entryDy=0;entryPerimeter=0;strokeWidth=2;" edge="1" parent="2U-sOm1JX4IMPe51Hoyo-113" source="2U-sOm1JX4IMPe51Hoyo-22" target="2U-sOm1JX4IMPe51Hoyo-21">
          <mxGeometry width="50" height="50" relative="1" as="geometry">
            <mxPoint x="56.629999999999995" y="190" as="sourcePoint" />
            <mxPoint x="106.63" y="140" as="targetPoint" />
          </mxGeometry>
        </mxCell>
        <mxCell id="2U-sOm1JX4IMPe51Hoyo-27" value="" style="endArrow=none;html=1;rounded=0;exitX=1;exitY=0.5;exitDx=0;exitDy=0;entryX=0;entryY=0.5;entryDx=0;entryDy=0;strokeWidth=2;" edge="1" parent="2U-sOm1JX4IMPe51Hoyo-113" source="2U-sOm1JX4IMPe51Hoyo-24" target="2U-sOm1JX4IMPe51Hoyo-21">
          <mxGeometry width="50" height="50" relative="1" as="geometry">
            <mxPoint x="281.63" y="10" as="sourcePoint" />
            <mxPoint x="327.63" y="27" as="targetPoint" />
          </mxGeometry>
        </mxCell>
        <mxCell id="2U-sOm1JX4IMPe51Hoyo-28" value="" style="endArrow=none;html=1;rounded=0;exitX=1;exitY=0.5;exitDx=0;exitDy=0;entryX=0.078;entryY=0.735;entryDx=0;entryDy=0;entryPerimeter=0;strokeWidth=2;" edge="1" parent="2U-sOm1JX4IMPe51Hoyo-113" source="2U-sOm1JX4IMPe51Hoyo-23" target="2U-sOm1JX4IMPe51Hoyo-21">
          <mxGeometry width="50" height="50" relative="1" as="geometry">
            <mxPoint x="281.63" y="120" as="sourcePoint" />
            <mxPoint x="327.63" y="137" as="targetPoint" />
          </mxGeometry>
        </mxCell>
        <mxCell id="2U-sOm1JX4IMPe51Hoyo-107" value="All users evaluate on the same test settings" style="rounded=0;whiteSpace=wrap;strokeColor=none;fillColor=none;fontSize=17;fontStyle=1" vertex="1" parent="2U-sOm1JX4IMPe51Hoyo-113">
          <mxGeometry x="4.25" y="145" width="190" height="60" as="geometry" />
        </mxCell>
        <mxCell id="2U-sOm1JX4IMPe51Hoyo-114" value="" style="group" vertex="1" connectable="0" parent="1">
          <mxGeometry x="800" y="70" width="198.5" height="210" as="geometry" />
        </mxCell>
        <mxCell id="2U-sOm1JX4IMPe51Hoyo-29" value="" style="rounded=0;whiteSpace=wrap;html=1;movable=1;resizable=1;rotatable=1;deletable=1;editable=1;locked=0;connectable=1;strokeWidth=3;fillColor=#f8cecc;strokeColor=#b85450;" vertex="1" parent="2U-sOm1JX4IMPe51Hoyo-114">
          <mxGeometry width="198.5" height="210" as="geometry" />
        </mxCell>
        <mxCell id="2U-sOm1JX4IMPe51Hoyo-30" value="" style="ellipse;whiteSpace=wrap;html=1;strokeWidth=3;movable=1;resizable=1;rotatable=1;deletable=1;editable=1;locked=0;connectable=1;" vertex="1" parent="2U-sOm1JX4IMPe51Hoyo-114">
          <mxGeometry x="11.75" y="6.5" width="175" height="90" as="geometry" />
        </mxCell>
        <mxCell id="2U-sOm1JX4IMPe51Hoyo-33" value="" style="endArrow=none;dashed=1;html=1;rounded=0;curved=1;" edge="1" parent="2U-sOm1JX4IMPe51Hoyo-114">
          <mxGeometry width="50" height="50" relative="1" as="geometry">
            <mxPoint x="20" y="55" as="sourcePoint" />
            <mxPoint x="20" y="55" as="targetPoint" />
            <Array as="points">
              <mxPoint x="20" y="45" />
              <mxPoint x="45" y="20" />
              <mxPoint x="80" y="15" />
              <mxPoint x="135" y="15" />
              <mxPoint x="160" y="30" />
              <mxPoint x="185" y="50" />
              <mxPoint x="175" y="70" />
              <mxPoint x="145" y="85" />
              <mxPoint x="105" y="95" />
              <mxPoint x="45" y="80" />
              <mxPoint x="25" y="70" />
            </Array>
          </mxGeometry>
        </mxCell>
        <mxCell id="2U-sOm1JX4IMPe51Hoyo-38" value="" style="group;aspect=fixed;" vertex="1" connectable="0" parent="2U-sOm1JX4IMPe51Hoyo-114">
          <mxGeometry x="47" y="24" width="7" height="7" as="geometry" />
        </mxCell>
        <mxCell id="2U-sOm1JX4IMPe51Hoyo-36" value="" style="endArrow=none;html=1;rounded=0;strokeWidth=2;" edge="1" parent="2U-sOm1JX4IMPe51Hoyo-38">
          <mxGeometry width="50" height="50" relative="1" as="geometry">
            <mxPoint y="7" as="sourcePoint" />
            <mxPoint x="7" as="targetPoint" />
          </mxGeometry>
        </mxCell>
        <mxCell id="2U-sOm1JX4IMPe51Hoyo-37" value="" style="endArrow=none;html=1;rounded=0;strokeWidth=2;" edge="1" parent="2U-sOm1JX4IMPe51Hoyo-38">
          <mxGeometry width="50" height="50" relative="1" as="geometry">
            <mxPoint x="7" y="7" as="sourcePoint" />
            <mxPoint as="targetPoint" />
          </mxGeometry>
        </mxCell>
        <mxCell id="2U-sOm1JX4IMPe51Hoyo-40" value="" style="group;aspect=fixed;" vertex="1" connectable="0" parent="2U-sOm1JX4IMPe51Hoyo-114">
          <mxGeometry x="131" y="19" width="7" height="7" as="geometry" />
        </mxCell>
        <mxCell id="2U-sOm1JX4IMPe51Hoyo-41" value="" style="endArrow=none;html=1;rounded=0;strokeWidth=2;" edge="1" parent="2U-sOm1JX4IMPe51Hoyo-40">
          <mxGeometry width="50" height="50" relative="1" as="geometry">
            <mxPoint y="7" as="sourcePoint" />
            <mxPoint x="7" as="targetPoint" />
          </mxGeometry>
        </mxCell>
        <mxCell id="2U-sOm1JX4IMPe51Hoyo-42" value="" style="endArrow=none;html=1;rounded=0;strokeWidth=2;" edge="1" parent="2U-sOm1JX4IMPe51Hoyo-40">
          <mxGeometry width="50" height="50" relative="1" as="geometry">
            <mxPoint x="7" y="7" as="sourcePoint" />
            <mxPoint as="targetPoint" />
          </mxGeometry>
        </mxCell>
        <mxCell id="2U-sOm1JX4IMPe51Hoyo-43" value="" style="group;aspect=fixed;" vertex="1" connectable="0" parent="2U-sOm1JX4IMPe51Hoyo-114">
          <mxGeometry x="77" y="18" width="7" height="7" as="geometry" />
        </mxCell>
        <mxCell id="2U-sOm1JX4IMPe51Hoyo-44" value="" style="endArrow=none;html=1;rounded=0;strokeWidth=2;" edge="1" parent="2U-sOm1JX4IMPe51Hoyo-43">
          <mxGeometry width="50" height="50" relative="1" as="geometry">
            <mxPoint y="7" as="sourcePoint" />
            <mxPoint x="7" as="targetPoint" />
          </mxGeometry>
        </mxCell>
        <mxCell id="2U-sOm1JX4IMPe51Hoyo-45" value="" style="endArrow=none;html=1;rounded=0;strokeWidth=2;" edge="1" parent="2U-sOm1JX4IMPe51Hoyo-43">
          <mxGeometry width="50" height="50" relative="1" as="geometry">
            <mxPoint x="7" y="7" as="sourcePoint" />
            <mxPoint as="targetPoint" />
          </mxGeometry>
        </mxCell>
        <mxCell id="2U-sOm1JX4IMPe51Hoyo-46" value="" style="group;aspect=fixed;" vertex="1" connectable="0" parent="2U-sOm1JX4IMPe51Hoyo-114">
          <mxGeometry x="154" y="33" width="7" height="7" as="geometry" />
        </mxCell>
        <mxCell id="2U-sOm1JX4IMPe51Hoyo-47" value="" style="endArrow=none;html=1;rounded=0;strokeWidth=2;" edge="1" parent="2U-sOm1JX4IMPe51Hoyo-46">
          <mxGeometry width="50" height="50" relative="1" as="geometry">
            <mxPoint y="7" as="sourcePoint" />
            <mxPoint x="7" as="targetPoint" />
          </mxGeometry>
        </mxCell>
        <mxCell id="2U-sOm1JX4IMPe51Hoyo-48" value="" style="endArrow=none;html=1;rounded=0;strokeWidth=2;" edge="1" parent="2U-sOm1JX4IMPe51Hoyo-46">
          <mxGeometry width="50" height="50" relative="1" as="geometry">
            <mxPoint x="7" y="7" as="sourcePoint" />
            <mxPoint as="targetPoint" />
          </mxGeometry>
        </mxCell>
        <mxCell id="2U-sOm1JX4IMPe51Hoyo-49" value="" style="group;aspect=fixed;" vertex="1" connectable="0" parent="2U-sOm1JX4IMPe51Hoyo-114">
          <mxGeometry x="172" y="50" width="7" height="7" as="geometry" />
        </mxCell>
        <mxCell id="2U-sOm1JX4IMPe51Hoyo-50" value="" style="endArrow=none;html=1;rounded=0;strokeWidth=2;" edge="1" parent="2U-sOm1JX4IMPe51Hoyo-49">
          <mxGeometry width="50" height="50" relative="1" as="geometry">
            <mxPoint y="7" as="sourcePoint" />
            <mxPoint x="7" as="targetPoint" />
          </mxGeometry>
        </mxCell>
        <mxCell id="2U-sOm1JX4IMPe51Hoyo-51" value="" style="endArrow=none;html=1;rounded=0;strokeWidth=2;" edge="1" parent="2U-sOm1JX4IMPe51Hoyo-49">
          <mxGeometry width="50" height="50" relative="1" as="geometry">
            <mxPoint x="7" y="7" as="sourcePoint" />
            <mxPoint as="targetPoint" />
          </mxGeometry>
        </mxCell>
        <mxCell id="2U-sOm1JX4IMPe51Hoyo-52" value="" style="group;aspect=fixed;" vertex="1" connectable="0" parent="2U-sOm1JX4IMPe51Hoyo-114">
          <mxGeometry x="165" y="61" width="7" height="7" as="geometry" />
        </mxCell>
        <mxCell id="2U-sOm1JX4IMPe51Hoyo-53" value="" style="endArrow=none;html=1;rounded=0;strokeWidth=2;" edge="1" parent="2U-sOm1JX4IMPe51Hoyo-52">
          <mxGeometry width="50" height="50" relative="1" as="geometry">
            <mxPoint y="7" as="sourcePoint" />
            <mxPoint x="7" as="targetPoint" />
          </mxGeometry>
        </mxCell>
        <mxCell id="2U-sOm1JX4IMPe51Hoyo-54" value="" style="endArrow=none;html=1;rounded=0;strokeWidth=2;" edge="1" parent="2U-sOm1JX4IMPe51Hoyo-52">
          <mxGeometry width="50" height="50" relative="1" as="geometry">
            <mxPoint x="7" y="7" as="sourcePoint" />
            <mxPoint as="targetPoint" />
          </mxGeometry>
        </mxCell>
        <mxCell id="2U-sOm1JX4IMPe51Hoyo-55" value="" style="group;aspect=fixed;" vertex="1" connectable="0" parent="2U-sOm1JX4IMPe51Hoyo-114">
          <mxGeometry x="140" y="75" width="7" height="7" as="geometry" />
        </mxCell>
        <mxCell id="2U-sOm1JX4IMPe51Hoyo-56" value="" style="endArrow=none;html=1;rounded=0;strokeWidth=2;" edge="1" parent="2U-sOm1JX4IMPe51Hoyo-55">
          <mxGeometry width="50" height="50" relative="1" as="geometry">
            <mxPoint y="7" as="sourcePoint" />
            <mxPoint x="7" as="targetPoint" />
          </mxGeometry>
        </mxCell>
        <mxCell id="2U-sOm1JX4IMPe51Hoyo-57" value="" style="endArrow=none;html=1;rounded=0;strokeWidth=2;" edge="1" parent="2U-sOm1JX4IMPe51Hoyo-55">
          <mxGeometry width="50" height="50" relative="1" as="geometry">
            <mxPoint x="7" y="7" as="sourcePoint" />
            <mxPoint as="targetPoint" />
          </mxGeometry>
        </mxCell>
        <mxCell id="2U-sOm1JX4IMPe51Hoyo-58" value="" style="group;aspect=fixed;" vertex="1" connectable="0" parent="2U-sOm1JX4IMPe51Hoyo-114">
          <mxGeometry x="102" y="83" width="7" height="7" as="geometry" />
        </mxCell>
        <mxCell id="2U-sOm1JX4IMPe51Hoyo-59" value="" style="endArrow=none;html=1;rounded=0;strokeWidth=2;" edge="1" parent="2U-sOm1JX4IMPe51Hoyo-58">
          <mxGeometry width="50" height="50" relative="1" as="geometry">
            <mxPoint y="7" as="sourcePoint" />
            <mxPoint x="7" as="targetPoint" />
          </mxGeometry>
        </mxCell>
        <mxCell id="2U-sOm1JX4IMPe51Hoyo-60" value="" style="endArrow=none;html=1;rounded=0;strokeWidth=2;" edge="1" parent="2U-sOm1JX4IMPe51Hoyo-58">
          <mxGeometry width="50" height="50" relative="1" as="geometry">
            <mxPoint x="7" y="7" as="sourcePoint" />
            <mxPoint as="targetPoint" />
          </mxGeometry>
        </mxCell>
        <mxCell id="2U-sOm1JX4IMPe51Hoyo-61" value="" style="group;aspect=fixed;" vertex="1" connectable="0" parent="2U-sOm1JX4IMPe51Hoyo-114">
          <mxGeometry x="43" y="70.51" width="7" height="7" as="geometry" />
        </mxCell>
        <mxCell id="2U-sOm1JX4IMPe51Hoyo-62" value="" style="endArrow=none;html=1;rounded=0;strokeWidth=2;" edge="1" parent="2U-sOm1JX4IMPe51Hoyo-61">
          <mxGeometry width="50" height="50" relative="1" as="geometry">
            <mxPoint y="7" as="sourcePoint" />
            <mxPoint x="7" as="targetPoint" />
          </mxGeometry>
        </mxCell>
        <mxCell id="2U-sOm1JX4IMPe51Hoyo-63" value="" style="endArrow=none;html=1;rounded=0;strokeWidth=2;" edge="1" parent="2U-sOm1JX4IMPe51Hoyo-61">
          <mxGeometry width="50" height="50" relative="1" as="geometry">
            <mxPoint x="7" y="7" as="sourcePoint" />
            <mxPoint as="targetPoint" />
          </mxGeometry>
        </mxCell>
        <mxCell id="2U-sOm1JX4IMPe51Hoyo-64" value="" style="group;aspect=fixed;" vertex="1" connectable="0" parent="2U-sOm1JX4IMPe51Hoyo-114">
          <mxGeometry x="32" y="64" width="7" height="7" as="geometry" />
        </mxCell>
        <mxCell id="2U-sOm1JX4IMPe51Hoyo-65" value="" style="endArrow=none;html=1;rounded=0;strokeWidth=2;" edge="1" parent="2U-sOm1JX4IMPe51Hoyo-64">
          <mxGeometry width="50" height="50" relative="1" as="geometry">
            <mxPoint y="7" as="sourcePoint" />
            <mxPoint x="7" as="targetPoint" />
          </mxGeometry>
        </mxCell>
        <mxCell id="2U-sOm1JX4IMPe51Hoyo-66" value="" style="endArrow=none;html=1;rounded=0;strokeWidth=2;" edge="1" parent="2U-sOm1JX4IMPe51Hoyo-64">
          <mxGeometry width="50" height="50" relative="1" as="geometry">
            <mxPoint x="7" y="7" as="sourcePoint" />
            <mxPoint as="targetPoint" />
          </mxGeometry>
        </mxCell>
        <mxCell id="2U-sOm1JX4IMPe51Hoyo-67" value="" style="group;aspect=fixed;" vertex="1" connectable="0" parent="2U-sOm1JX4IMPe51Hoyo-114">
          <mxGeometry x="22" y="51" width="7" height="7" as="geometry" />
        </mxCell>
        <mxCell id="2U-sOm1JX4IMPe51Hoyo-68" value="" style="endArrow=none;html=1;rounded=0;strokeWidth=2;" edge="1" parent="2U-sOm1JX4IMPe51Hoyo-67">
          <mxGeometry width="50" height="50" relative="1" as="geometry">
            <mxPoint y="7" as="sourcePoint" />
            <mxPoint x="7" as="targetPoint" />
          </mxGeometry>
        </mxCell>
        <mxCell id="2U-sOm1JX4IMPe51Hoyo-69" value="" style="endArrow=none;html=1;rounded=0;strokeWidth=2;" edge="1" parent="2U-sOm1JX4IMPe51Hoyo-67">
          <mxGeometry width="50" height="50" relative="1" as="geometry">
            <mxPoint x="7" y="7" as="sourcePoint" />
            <mxPoint as="targetPoint" />
          </mxGeometry>
        </mxCell>
        <mxCell id="2U-sOm1JX4IMPe51Hoyo-70" value="" style="group;aspect=fixed;" vertex="1" connectable="0" parent="2U-sOm1JX4IMPe51Hoyo-114">
          <mxGeometry x="27" y="40" width="7" height="7" as="geometry" />
        </mxCell>
        <mxCell id="2U-sOm1JX4IMPe51Hoyo-71" value="" style="endArrow=none;html=1;rounded=0;strokeWidth=2;" edge="1" parent="2U-sOm1JX4IMPe51Hoyo-70">
          <mxGeometry width="50" height="50" relative="1" as="geometry">
            <mxPoint y="7" as="sourcePoint" />
            <mxPoint x="7" as="targetPoint" />
          </mxGeometry>
        </mxCell>
        <mxCell id="2U-sOm1JX4IMPe51Hoyo-72" value="" style="endArrow=none;html=1;rounded=0;strokeWidth=2;" edge="1" parent="2U-sOm1JX4IMPe51Hoyo-70">
          <mxGeometry width="50" height="50" relative="1" as="geometry">
            <mxPoint x="7" y="7" as="sourcePoint" />
            <mxPoint as="targetPoint" />
          </mxGeometry>
        </mxCell>
        <mxCell id="2U-sOm1JX4IMPe51Hoyo-73" value="" style="group;aspect=fixed;" vertex="1" connectable="0" parent="2U-sOm1JX4IMPe51Hoyo-114">
          <mxGeometry x="65" y="35" width="7" height="7" as="geometry" />
        </mxCell>
        <mxCell id="2U-sOm1JX4IMPe51Hoyo-74" value="" style="endArrow=none;html=1;rounded=0;strokeWidth=2;" edge="1" parent="2U-sOm1JX4IMPe51Hoyo-73">
          <mxGeometry width="50" height="50" relative="1" as="geometry">
            <mxPoint y="7" as="sourcePoint" />
            <mxPoint x="7" as="targetPoint" />
          </mxGeometry>
        </mxCell>
        <mxCell id="2U-sOm1JX4IMPe51Hoyo-75" value="" style="endArrow=none;html=1;rounded=0;strokeWidth=2;" edge="1" parent="2U-sOm1JX4IMPe51Hoyo-73">
          <mxGeometry width="50" height="50" relative="1" as="geometry">
            <mxPoint x="7" y="7" as="sourcePoint" />
            <mxPoint as="targetPoint" />
          </mxGeometry>
        </mxCell>
        <mxCell id="2U-sOm1JX4IMPe51Hoyo-76" value="" style="group;aspect=fixed;" vertex="1" connectable="0" parent="2U-sOm1JX4IMPe51Hoyo-114">
          <mxGeometry x="106.5" y="28" width="7" height="7" as="geometry" />
        </mxCell>
        <mxCell id="2U-sOm1JX4IMPe51Hoyo-77" value="" style="endArrow=none;html=1;rounded=0;strokeWidth=2;" edge="1" parent="2U-sOm1JX4IMPe51Hoyo-76">
          <mxGeometry width="50" height="50" relative="1" as="geometry">
            <mxPoint y="7" as="sourcePoint" />
            <mxPoint x="7" as="targetPoint" />
          </mxGeometry>
        </mxCell>
        <mxCell id="2U-sOm1JX4IMPe51Hoyo-78" value="" style="endArrow=none;html=1;rounded=0;strokeWidth=2;" edge="1" parent="2U-sOm1JX4IMPe51Hoyo-76">
          <mxGeometry width="50" height="50" relative="1" as="geometry">
            <mxPoint x="7" y="7" as="sourcePoint" />
            <mxPoint as="targetPoint" />
          </mxGeometry>
        </mxCell>
        <mxCell id="2U-sOm1JX4IMPe51Hoyo-79" value="" style="group;aspect=fixed;" vertex="1" connectable="0" parent="2U-sOm1JX4IMPe51Hoyo-114">
          <mxGeometry x="130" y="40" width="7" height="7" as="geometry" />
        </mxCell>
        <mxCell id="2U-sOm1JX4IMPe51Hoyo-80" value="" style="endArrow=none;html=1;rounded=0;strokeWidth=2;" edge="1" parent="2U-sOm1JX4IMPe51Hoyo-79">
          <mxGeometry width="50" height="50" relative="1" as="geometry">
            <mxPoint y="7" as="sourcePoint" />
            <mxPoint x="7" as="targetPoint" />
          </mxGeometry>
        </mxCell>
        <mxCell id="2U-sOm1JX4IMPe51Hoyo-81" value="" style="endArrow=none;html=1;rounded=0;strokeWidth=2;" edge="1" parent="2U-sOm1JX4IMPe51Hoyo-79">
          <mxGeometry width="50" height="50" relative="1" as="geometry">
            <mxPoint x="7" y="7" as="sourcePoint" />
            <mxPoint as="targetPoint" />
          </mxGeometry>
        </mxCell>
        <mxCell id="2U-sOm1JX4IMPe51Hoyo-82" value="" style="group;aspect=fixed;" vertex="1" connectable="0" parent="2U-sOm1JX4IMPe51Hoyo-114">
          <mxGeometry x="115" y="53" width="7" height="7" as="geometry" />
        </mxCell>
        <mxCell id="2U-sOm1JX4IMPe51Hoyo-83" value="" style="endArrow=none;html=1;rounded=0;strokeWidth=2;" edge="1" parent="2U-sOm1JX4IMPe51Hoyo-82">
          <mxGeometry width="50" height="50" relative="1" as="geometry">
            <mxPoint y="7" as="sourcePoint" />
            <mxPoint x="7" as="targetPoint" />
          </mxGeometry>
        </mxCell>
        <mxCell id="2U-sOm1JX4IMPe51Hoyo-84" value="" style="endArrow=none;html=1;rounded=0;strokeWidth=2;" edge="1" parent="2U-sOm1JX4IMPe51Hoyo-82">
          <mxGeometry width="50" height="50" relative="1" as="geometry">
            <mxPoint x="7" y="7" as="sourcePoint" />
            <mxPoint as="targetPoint" />
          </mxGeometry>
        </mxCell>
        <mxCell id="2U-sOm1JX4IMPe51Hoyo-85" value="" style="group;aspect=fixed;" vertex="1" connectable="0" parent="2U-sOm1JX4IMPe51Hoyo-114">
          <mxGeometry x="80" y="53" width="7" height="7" as="geometry" />
        </mxCell>
        <mxCell id="2U-sOm1JX4IMPe51Hoyo-86" value="" style="endArrow=none;html=1;rounded=0;strokeWidth=2;" edge="1" parent="2U-sOm1JX4IMPe51Hoyo-85">
          <mxGeometry width="50" height="50" relative="1" as="geometry">
            <mxPoint y="7" as="sourcePoint" />
            <mxPoint x="7" as="targetPoint" />
          </mxGeometry>
        </mxCell>
        <mxCell id="2U-sOm1JX4IMPe51Hoyo-87" value="" style="endArrow=none;html=1;rounded=0;strokeWidth=2;" edge="1" parent="2U-sOm1JX4IMPe51Hoyo-85">
          <mxGeometry width="50" height="50" relative="1" as="geometry">
            <mxPoint x="7" y="7" as="sourcePoint" />
            <mxPoint as="targetPoint" />
          </mxGeometry>
        </mxCell>
        <mxCell id="2U-sOm1JX4IMPe51Hoyo-88" value="" style="group;aspect=fixed;" vertex="1" connectable="0" parent="2U-sOm1JX4IMPe51Hoyo-114">
          <mxGeometry x="90" y="35" width="7" height="7" as="geometry" />
        </mxCell>
        <mxCell id="2U-sOm1JX4IMPe51Hoyo-89" value="" style="endArrow=none;html=1;rounded=0;strokeWidth=2;" edge="1" parent="2U-sOm1JX4IMPe51Hoyo-88">
          <mxGeometry width="50" height="50" relative="1" as="geometry">
            <mxPoint y="7" as="sourcePoint" />
            <mxPoint x="7" as="targetPoint" />
          </mxGeometry>
        </mxCell>
        <mxCell id="2U-sOm1JX4IMPe51Hoyo-90" value="" style="endArrow=none;html=1;rounded=0;strokeWidth=2;" edge="1" parent="2U-sOm1JX4IMPe51Hoyo-88">
          <mxGeometry width="50" height="50" relative="1" as="geometry">
            <mxPoint x="7" y="7" as="sourcePoint" />
            <mxPoint as="targetPoint" />
          </mxGeometry>
        </mxCell>
        <mxCell id="2U-sOm1JX4IMPe51Hoyo-91" value="" style="group;aspect=fixed;" vertex="1" connectable="0" parent="2U-sOm1JX4IMPe51Hoyo-114">
          <mxGeometry x="50" y="50" width="7" height="7" as="geometry" />
        </mxCell>
        <mxCell id="2U-sOm1JX4IMPe51Hoyo-92" value="" style="endArrow=none;html=1;rounded=0;strokeWidth=2;" edge="1" parent="2U-sOm1JX4IMPe51Hoyo-91">
          <mxGeometry width="50" height="50" relative="1" as="geometry">
            <mxPoint y="7" as="sourcePoint" />
            <mxPoint x="7" as="targetPoint" />
          </mxGeometry>
        </mxCell>
        <mxCell id="2U-sOm1JX4IMPe51Hoyo-93" value="" style="endArrow=none;html=1;rounded=0;strokeWidth=2;" edge="1" parent="2U-sOm1JX4IMPe51Hoyo-91">
          <mxGeometry width="50" height="50" relative="1" as="geometry">
            <mxPoint x="7" y="7" as="sourcePoint" />
            <mxPoint as="targetPoint" />
          </mxGeometry>
        </mxCell>
        <mxCell id="2U-sOm1JX4IMPe51Hoyo-94" value="" style="group;aspect=fixed;" vertex="1" connectable="0" parent="2U-sOm1JX4IMPe51Hoyo-114">
          <mxGeometry x="70" y="65" width="7" height="7" as="geometry" />
        </mxCell>
        <mxCell id="2U-sOm1JX4IMPe51Hoyo-95" value="" style="endArrow=none;html=1;rounded=0;strokeWidth=2;" edge="1" parent="2U-sOm1JX4IMPe51Hoyo-94">
          <mxGeometry width="50" height="50" relative="1" as="geometry">
            <mxPoint y="7" as="sourcePoint" />
            <mxPoint x="7" as="targetPoint" />
          </mxGeometry>
        </mxCell>
        <mxCell id="2U-sOm1JX4IMPe51Hoyo-96" value="" style="endArrow=none;html=1;rounded=0;strokeWidth=2;" edge="1" parent="2U-sOm1JX4IMPe51Hoyo-94">
          <mxGeometry width="50" height="50" relative="1" as="geometry">
            <mxPoint x="7" y="7" as="sourcePoint" />
            <mxPoint as="targetPoint" />
          </mxGeometry>
        </mxCell>
        <mxCell id="2U-sOm1JX4IMPe51Hoyo-97" value="" style="group;aspect=fixed;" vertex="1" connectable="0" parent="2U-sOm1JX4IMPe51Hoyo-114">
          <mxGeometry x="100" y="65" width="7" height="7" as="geometry" />
        </mxCell>
        <mxCell id="2U-sOm1JX4IMPe51Hoyo-98" value="" style="endArrow=none;html=1;rounded=0;strokeWidth=2;" edge="1" parent="2U-sOm1JX4IMPe51Hoyo-97">
          <mxGeometry width="50" height="50" relative="1" as="geometry">
            <mxPoint y="7" as="sourcePoint" />
            <mxPoint x="7" as="targetPoint" />
          </mxGeometry>
        </mxCell>
        <mxCell id="2U-sOm1JX4IMPe51Hoyo-99" value="" style="endArrow=none;html=1;rounded=0;strokeWidth=2;" edge="1" parent="2U-sOm1JX4IMPe51Hoyo-97">
          <mxGeometry width="50" height="50" relative="1" as="geometry">
            <mxPoint x="7" y="7" as="sourcePoint" />
            <mxPoint as="targetPoint" />
          </mxGeometry>
        </mxCell>
        <mxCell id="2U-sOm1JX4IMPe51Hoyo-100" value="" style="group;aspect=fixed;" vertex="1" connectable="0" parent="2U-sOm1JX4IMPe51Hoyo-114">
          <mxGeometry x="140" y="55" width="7" height="7" as="geometry" />
        </mxCell>
        <mxCell id="2U-sOm1JX4IMPe51Hoyo-101" value="" style="endArrow=none;html=1;rounded=0;strokeWidth=2;" edge="1" parent="2U-sOm1JX4IMPe51Hoyo-100">
          <mxGeometry width="50" height="50" relative="1" as="geometry">
            <mxPoint y="7" as="sourcePoint" />
            <mxPoint x="7" as="targetPoint" />
          </mxGeometry>
        </mxCell>
        <mxCell id="2U-sOm1JX4IMPe51Hoyo-102" value="" style="endArrow=none;html=1;rounded=0;strokeWidth=2;" edge="1" parent="2U-sOm1JX4IMPe51Hoyo-100">
          <mxGeometry width="50" height="50" relative="1" as="geometry">
            <mxPoint x="7" y="7" as="sourcePoint" />
            <mxPoint as="targetPoint" />
          </mxGeometry>
        </mxCell>
        <mxCell id="2U-sOm1JX4IMPe51Hoyo-108" value="large-scale test dataset is required to cover the task domain" style="rounded=0;whiteSpace=wrap;strokeColor=none;fillColor=none;fontSize=17;fontStyle=1" vertex="1" parent="2U-sOm1JX4IMPe51Hoyo-114">
          <mxGeometry x="3.5" y="125" width="190" height="60" as="geometry" />
        </mxCell>
      </root>
    </mxGraphModel>
  </diagram>
</mxfile>
